<svg width="252" height="251" viewBox="0 0 252 251" fill="none" xmlns="http://www.w3.org/2000/svg">
<g clip-path="url(#clip0_137_3280)">
<path d="M47.5374 208.049C44.927 209.003 42.2162 210.207 40.8106 212.567C39.1038 215.478 40.0074 219.394 42.166 222.004C44.3246 224.615 47.5876 226.02 50.8004 227.024C63.752 231.04 77.6574 228.932 91.2114 228.581C105.318 228.279 119.424 229.936 133.028 233.601C148.339 237.717 164.001 244.343 179.513 240.98C189.754 238.721 198.539 232.346 206.973 226.121C211.541 222.757 216.059 219.394 220.627 216.031C222.284 214.826 224.041 213.37 224.292 211.362C224.743 207.748 220.276 205.689 216.661 204.987C194.071 200.619 170.929 202.075 148.138 203.531C136.542 204.234 124.946 204.987 113.35 204.987C102.506 204.987 91.3118 202.376 80.569 202.928C69.5752 203.481 58.0292 204.334 47.5374 208.049Z" fill="white"/>
<path d="M170.628 242.285C161.04 242.285 151.401 239.424 142.014 236.613C139.052 235.709 135.99 234.805 132.978 234.002C119.374 230.338 105.318 228.681 91.2616 228.982C88.1994 229.032 85.0368 229.233 81.9746 229.384C71.533 229.936 60.7902 230.538 50.7 227.376C46.5836 226.121 43.7724 224.464 41.8648 222.205C39.3548 219.243 38.8026 215.227 40.4592 212.366C41.915 209.856 44.7764 208.601 47.3868 207.647C57.9288 203.882 69.525 203.029 80.5188 202.477C86.4424 202.175 92.617 202.828 98.5908 203.481C103.46 203.983 108.48 204.535 113.35 204.535H113.801C125.096 204.535 136.542 203.832 147.636 203.129L148.49 203.079C170.979 201.673 194.222 200.218 216.762 204.585C220.727 205.338 225.145 207.597 224.693 211.362C224.442 213.521 222.685 214.976 220.878 216.282L207.224 226.422C199.192 232.346 190.156 239.072 179.614 241.331C176.652 241.984 173.64 242.285 170.628 242.285ZM94.7756 228.229C107.727 228.229 120.629 229.936 133.179 233.299C136.191 234.103 139.253 235.006 142.215 235.91C154.463 239.574 167.114 243.339 179.463 240.679C189.804 238.42 198.84 231.743 206.772 225.87L220.426 215.78C222.083 214.575 223.739 213.219 223.94 211.362C224.342 208.099 220.225 206.141 216.611 205.438C194.172 201.121 170.979 202.527 148.54 203.932L147.686 203.983C136.492 204.685 124.795 205.388 113.4 205.388C108.48 205.388 103.46 204.836 98.5406 204.334C92.617 203.681 86.4926 203.029 80.6192 203.33C69.6756 203.882 58.1296 204.786 47.688 208.45C45.0776 209.404 42.4672 210.559 41.162 212.818C39.656 215.378 40.2082 219.093 42.5174 221.804C44.3246 223.912 47.0354 225.518 51.0012 226.723C60.9408 229.785 71.6334 229.233 81.9746 228.681C85.0368 228.53 88.1994 228.33 91.2616 228.279C92.4162 228.229 93.5708 228.229 94.7756 228.229Z" fill="#111111"/>
<path d="M175.999 210.107C175.597 210.107 175.246 209.756 175.246 209.354C175.246 208.952 175.597 208.601 175.999 208.601L177.254 208.551C177.656 208.551 178.007 208.852 178.007 209.304C178.007 209.705 177.706 210.057 177.254 210.057L175.999 210.107Z" fill="#128FFF"/>
<path d="M197.233 149.767C196.832 149.767 196.48 149.415 196.48 149.014L196.531 147.759C196.531 147.357 196.882 147.006 197.284 147.006C197.685 147.006 198.037 147.357 198.037 147.759L197.986 149.014C197.986 149.465 197.635 149.767 197.233 149.767Z" fill="#128FFF"/>
<path d="M199.041 205.338C197.836 202.928 194.874 201.974 192.515 203.229C190.155 204.484 189.151 207.396 190.406 209.755C191.611 212.165 194.573 213.119 196.932 211.864C199.141 210.759 200.145 208.149 199.292 205.84" fill="#128FFF"/>
<path d="M194.422 124.365C191.36 124.667 188.097 125.169 185.989 127.377C183.378 130.088 183.529 134.405 183.88 138.12C184.182 141.785 184.784 145.901 187.746 148.06C190.005 149.716 193.017 149.666 195.828 149.616L229.964 148.712C232.524 148.662 235.235 148.512 237.394 147.106C241.159 144.546 241.359 139.174 241.209 134.606C241.108 131.494 240.807 125.721 237.645 123.964C234.984 122.508 229.01 123.462 225.998 123.361C215.406 123.01 204.914 123.311 194.422 124.365Z" fill="#128FFF"/>
<path d="M189.252 131.996C187.445 135.409 188.198 140.128 191.26 142.588C194.322 145.048 199.292 144.596 201.702 141.534C208.027 133.351 195.477 120.299 189.252 131.996Z" fill="white"/>
<path d="M194.523 129.184C194.021 129.536 193.669 129.988 193.418 130.54C193.167 130.992 193.067 131.544 193.017 132.046C193.017 132.598 193.167 133.1 193.519 133.502C194.021 134.054 194.824 134.255 195.527 134.054C196.229 133.853 196.832 133.401 197.233 132.799C197.635 132.247 197.836 131.544 197.735 130.841C197.484 129.536 195.727 128.482 194.523 129.184Z" fill="#111111"/>
<path d="M194.272 135.661C194.623 135.309 195.125 135.108 195.627 135.159C196.23 135.359 196.782 135.761 197.083 136.313C197.585 137.016 198.037 137.669 198.439 138.371C198.74 138.773 198.941 139.325 198.89 139.827C198.69 140.48 198.188 140.982 197.585 141.183C196.23 141.735 193.469 142.136 192.565 140.58C191.762 139.175 193.268 136.614 194.272 135.661Z" fill="#111111"/>
<path d="M207.425 127.227C206.672 127.227 205.969 127.628 205.618 128.231C205.216 129.084 205.818 130.189 206.672 130.64C207.525 131.092 208.579 131.042 209.533 130.992L227.605 130.189C229.111 130.138 230.617 130.038 232.123 129.938C232.977 129.938 233.78 129.737 234.583 129.385C235.537 129.034 236.039 127.93 235.687 126.976C235.436 126.373 234.884 125.922 234.232 125.771C233.479 125.57 232.675 125.57 231.922 125.671L211.893 127.177C210.387 127.277 208.881 127.076 207.425 127.227Z" fill="white"/>
<path d="M208.529 133.602H207.073C206.923 133.602 206.822 133.502 206.822 133.351C206.822 133.201 206.923 133.1 207.073 133.1C216.561 133.15 226.099 132.598 235.486 131.444C235.637 131.444 235.737 131.544 235.788 131.644C235.838 131.745 235.687 131.895 235.587 131.946C226.601 133.05 217.565 133.602 208.529 133.602Z" fill="white"/>
<path d="M207.374 137.166C207.223 137.166 207.123 137.066 207.123 136.915C207.123 136.765 207.223 136.664 207.374 136.664C216.812 136.514 226.4 136.112 235.837 135.459C235.988 135.459 236.088 135.56 236.088 135.71C236.088 135.861 235.988 135.961 235.837 135.961C226.4 136.614 216.812 137.016 207.374 137.166Z" fill="white"/>
<path d="M209.734 140.731H207.575C207.425 140.731 207.324 140.63 207.324 140.48C207.324 140.329 207.425 140.229 207.575 140.229C217.264 140.279 227.103 139.978 236.792 139.375C236.942 139.375 237.043 139.476 237.043 139.576C237.043 139.727 236.942 139.827 236.792 139.827C227.856 140.429 218.77 140.731 209.734 140.731Z" fill="white"/>
<path d="M207.524 143.692C207.374 143.692 207.273 143.592 207.273 143.441C207.273 143.291 207.374 143.19 207.524 143.19L235.687 142.839C235.837 142.839 235.938 142.939 235.938 143.09C235.938 143.24 235.837 143.341 235.687 143.341L207.524 143.692Z" fill="white"/>
<path d="M75.0471 43.0917H73.7921C73.3905 43.0917 73.0391 42.7403 73.0391 42.3387C73.0391 41.9371 73.3905 41.5857 73.7921 41.5857H75.0471C75.4487 41.5857 75.8001 41.9371 75.8001 42.3387C75.8001 42.7403 75.4487 43.0917 75.0471 43.0917Z" fill="#128FFF"/>
<path d="M94.0723 43.0917H91.7129C91.3113 43.0917 90.9599 42.7403 90.9599 42.3387C90.9599 41.9371 91.3113 41.5857 91.7129 41.5857H94.0723C94.4739 41.5857 94.8253 41.9371 94.8253 42.3387C94.8253 42.7403 94.4739 43.0917 94.0723 43.0917ZM89.3033 43.0917H86.9439C86.5423 43.0917 86.1909 42.7403 86.1909 42.3387C86.1909 41.9371 86.5423 41.5857 86.9439 41.5857H89.3033C89.7049 41.5857 90.0563 41.9371 90.0563 42.3387C90.0563 42.7403 89.7049 43.0917 89.3033 43.0917ZM84.5845 43.0917H82.2251C81.8235 43.0917 81.4721 42.7403 81.4721 42.3387C81.4721 41.9371 81.8235 41.5857 82.2251 41.5857H84.5845C84.9861 41.5857 85.3375 41.9371 85.3375 42.3387C85.3375 42.7403 84.9861 43.0917 84.5845 43.0917ZM79.8155 43.0917H77.4561C77.0545 43.0917 76.7031 42.7403 76.7031 42.3387C76.7031 41.9371 77.0545 41.5857 77.4561 41.5857H79.8155C80.2171 41.5857 80.5685 41.9371 80.5685 42.3387C80.5685 42.7403 80.2171 43.0917 79.8155 43.0917Z" fill="#128FFF"/>
<path d="M97.7375 43.0917H96.4825C96.0809 43.0917 95.7295 42.7403 95.7295 42.3387C95.7295 41.9371 96.0809 41.5857 96.4825 41.5857H97.7375C98.1391 41.5857 98.4905 41.9371 98.4905 42.3387C98.4905 42.7403 98.1391 43.0917 97.7375 43.0917Z" fill="#128FFF"/>
<path d="M40.6101 33.9551C38.4013 34.1559 35.9415 34.5575 34.4355 36.1639C32.5279 38.1719 32.6283 41.2843 32.8793 44.0955C33.1303 46.9067 33.5319 49.8183 35.7407 51.3745C37.3973 52.5793 39.6061 52.5793 41.6643 52.5291L66.7643 51.8765C68.6719 51.8263 70.6297 51.7259 72.1859 50.6717C74.9469 48.7641 75.0975 44.8485 74.9971 41.4851C74.8967 39.1759 74.6959 34.9591 72.3867 33.6539C70.4289 32.5495 66.0615 33.3025 63.8527 33.2021C56.0717 32.9511 48.3409 33.2021 40.6101 33.9551Z" fill="white"/>
<path d="M64.555 37.0675C64.5048 36.9671 64.4044 36.8165 64.2538 36.7663C64.0028 36.7161 63.8522 37.0173 63.802 37.2683C63.551 38.3727 63.3502 39.4771 63.1996 40.6317L60.3382 40.6819C60.0872 40.6819 59.7358 40.7321 59.6856 40.9831C59.6354 41.2341 59.8362 41.3847 59.9868 41.5353L61.5932 42.8405C61.8442 42.9911 61.9948 43.2923 61.8442 43.5935C61.8442 43.5935 61.8442 43.6437 61.794 43.6437C61.3924 44.5975 61.041 45.5513 60.6394 46.5051C60.9406 46.6055 61.2418 46.6055 61.4928 46.4549C61.7438 46.3043 61.9948 46.1537 62.1956 45.9529C62.6976 45.5011 63.1996 44.9991 63.6514 44.4469C64.4546 45.1999 65.3582 45.8023 66.312 46.3545C66.4124 46.4047 66.5128 46.4549 66.6634 46.4549C66.8642 46.4047 66.8642 46.1035 66.814 45.9027C66.563 45.0493 66.1614 44.2461 65.6594 43.5433C66.4626 43.1417 67.2156 42.6899 67.9686 42.1879C68.1694 42.0373 68.4204 41.8365 68.3702 41.5855C68.32 41.3345 67.9686 41.2341 67.6674 41.2341C67.065 41.2341 66.4626 41.2341 65.81 41.1337C65.4084 41.0333 65.3582 40.7321 65.3582 40.3305C65.308 39.2261 65.057 38.1217 64.555 37.0675Z" fill="#128FFF"/>
<path d="M53.4109 37.5694C53.3607 37.469 53.2603 37.3686 53.1097 37.3184C52.8587 37.3184 52.7583 37.5694 52.7081 37.8204C52.5575 38.8746 52.4571 39.979 52.4069 41.0332L49.6961 41.2842C49.4451 41.2842 49.0938 41.3846 49.0938 41.6356C49.0938 41.8866 49.2443 42.0372 49.4451 42.1376L51.0516 43.242C51.2022 43.3424 51.3025 43.4428 51.3527 43.5934C51.3527 43.744 51.3528 43.8444 51.3026 43.995C51.0014 44.9488 50.7503 45.8524 50.4491 46.8062C50.7001 46.8564 51.0013 46.8564 51.2523 46.7058C51.5033 46.5552 51.7041 46.4046 51.9049 46.2038C52.3567 45.752 52.7583 45.25 53.1599 44.6978C53.9631 45.3504 54.8668 45.8524 55.8206 46.3042C55.921 46.3544 56.0213 46.3544 56.1217 46.3544C56.3225 46.254 56.2723 46.003 56.2221 45.8022C55.9209 44.999 55.4691 44.2962 54.9169 43.6436C55.6197 43.1918 56.3225 42.6898 56.9751 42.1878C57.1759 42.0372 57.3767 41.7862 57.2763 41.5854C57.1759 41.3846 56.8748 41.2842 56.5736 41.2842C55.9712 41.3344 55.419 41.3846 54.8166 41.3344C54.415 41.2842 54.3648 40.983 54.3146 40.6316C54.3146 39.5272 53.9631 38.473 53.4109 37.5694Z" fill="#128FFF"/>
<path d="M43.8726 38.3727C43.8224 38.2723 43.722 38.1217 43.6216 38.1217C43.4208 38.0715 43.2702 38.3225 43.22 38.5735C42.9188 39.5775 42.718 40.5815 42.5674 41.6357L39.957 41.5855C39.706 41.5855 39.4048 41.6357 39.3546 41.8365C39.3044 42.0373 39.455 42.2381 39.6056 42.3385L41.0112 43.5433C41.2622 43.6939 41.3626 43.9951 41.212 44.1959C41.212 44.1959 41.212 44.2461 41.1618 44.2461L40.0072 46.8565C40.2582 46.9569 40.5594 46.9569 40.8104 46.8565C41.0614 46.7561 41.3124 46.6055 41.5132 46.4047C42.0152 46.0031 42.467 45.5513 42.8686 45.0995C43.5714 45.8023 44.3746 46.4047 45.228 46.9067C45.3284 46.9569 45.4288 47.0071 45.5292 47.0071C45.73 46.9569 45.73 46.7059 45.6798 46.5051C45.479 45.7019 45.1276 44.9489 44.6758 44.2963C45.4288 43.9449 46.1316 43.5433 46.8344 43.1417C47.0352 43.0413 47.236 42.8405 47.236 42.5895C47.236 42.3385 46.8344 42.2381 46.5834 42.2381C46.0312 42.2381 45.479 42.1879 44.9268 42.0875C44.5754 41.9871 44.5252 41.6859 44.5252 41.3345C44.5252 40.3305 44.2742 39.3265 43.8726 38.3727Z" fill="#128FFF"/>
<path d="M40.5094 52.8806C38.903 52.8806 36.9954 52.73 35.4894 51.6758C33.1802 50.0192 32.7284 46.9068 32.4774 44.0956C32.2264 41.2342 32.126 37.9712 34.134 35.913C35.7404 34.2062 38.2002 33.8046 40.5596 33.6038C48.2904 32.8508 56.0212 32.5998 63.8022 32.8508C64.4046 32.8508 65.258 32.8508 66.1616 32.7504C68.4708 32.65 71.0812 32.4994 72.537 33.3026C75.0972 34.7082 75.2478 39.0756 75.3482 41.435C75.4988 45.0494 75.2478 49.0152 72.3864 50.9228C70.6796 52.0774 68.521 52.1276 66.764 52.1778L41.664 52.8304C41.3126 52.8806 40.911 52.8806 40.5094 52.8806ZM40.6098 33.9552L40.66 34.3568C38.4512 34.5576 36.142 34.909 34.6862 36.4652C32.879 38.3226 32.9794 41.3848 33.2304 44.0956C33.4814 46.706 33.883 49.6176 35.9412 51.1236C37.4472 52.228 39.405 52.228 41.664 52.1778L66.764 51.5252C68.4206 51.475 70.4788 51.4248 71.9848 50.4208C74.545 48.6638 74.7458 44.9992 74.5952 41.5856C74.4948 39.5274 74.3442 35.3106 72.1856 34.1058C70.8804 33.403 68.27 33.5034 66.2118 33.654C65.3082 33.7042 64.4548 33.7544 63.8022 33.7544C56.0714 33.5034 48.3908 33.7042 40.7102 34.4572L40.6098 33.9552Z" fill="#111111"/>
<path d="M92.416 28.4332C89.906 32.5998 89.8056 37.67 89.7554 42.4892L89.5044 76.2738C89.2032 113.422 88.9522 150.52 89.8558 187.668C90.0064 193.641 90.3578 200.067 94.2734 204.736C97.2352 208.199 101.753 210.107 106.07 211.814L154.313 231.191C160.537 233.701 167.867 236.161 173.79 233.099C180.919 229.384 181.722 220.147 181.672 212.416C181.32 149.566 182.927 86.7656 186.541 23.9654C186.842 18.845 186.591 12.7206 182.023 10.06C178.76 8.20262 174.644 8.90542 170.979 9.70862L126.401 19.2466C119.926 20.7024 95.679 23.112 92.416 28.4332Z" fill="#111111"/>
<path d="M95.0264 32.4492C92.8678 36.0636 92.7674 40.431 92.7172 44.5474L92.5164 73.6634C92.2654 105.691 92.0144 137.719 92.8176 169.696C92.918 174.816 93.2192 180.389 96.6328 184.405C99.1428 187.417 103.008 189.023 106.723 190.529L147.987 207.246C153.309 209.404 159.584 211.513 164.654 208.852C170.728 205.639 171.431 197.657 171.381 191.031C171.079 136.865 172.485 82.6994 175.547 28.5336C175.798 24.116 175.597 18.845 171.682 16.5358C168.921 14.9294 165.357 15.5318 162.194 16.2346L124.092 24.5176C118.52 25.7224 97.7874 27.8308 95.0264 32.4492Z" fill="white"/>
<path d="M101.351 71.7559C101.351 73.2619 101.402 74.9687 102.657 75.9727C103.661 76.7759 105.116 76.9265 106.472 76.9767L123.69 77.8301C125.447 77.9305 127.455 77.9305 128.71 76.8261C129.965 75.7217 130.066 73.8141 130.016 72.2077C129.815 65.4809 129.564 58.7541 129.363 52.0273C129.313 50.5715 129.212 48.9149 128.108 47.8607C126.502 46.3045 123.791 46.6559 121.532 47.1579L110.187 49.5173C107.978 49.9691 103.359 50.0695 101.954 51.9269C100.448 53.8847 101.452 58.5533 101.452 60.8625L101.351 71.7559Z" fill="#128FFF"/>
<path d="M102.105 114.325C102.005 116.283 101.904 118.392 102.959 120.098C104.264 122.207 106.874 123.01 109.234 123.612L118.822 126.173C120.679 126.675 122.788 127.177 124.494 126.323C126.904 125.169 127.506 122.106 127.908 119.446L129.916 104.838C130.267 102.328 130.518 99.5164 128.962 97.5586C127.657 95.902 125.498 95.2996 123.44 94.898C120.227 94.2454 116.964 93.7936 113.651 93.5928C111.593 93.4422 105.218 92.4382 103.611 93.9442C102.105 95.3498 102.808 101.173 102.708 103.131L102.105 114.325Z" fill="#128FFF"/>
<path d="M119.674 142.136C121.18 142.638 122.736 143.14 123.74 144.345C125.196 146.052 124.995 148.562 124.744 150.771C124.142 156.142 123.59 161.564 122.987 166.935C122.736 169.345 122.385 171.905 120.578 173.561C118.269 175.67 114.755 175.218 111.692 174.666C108.028 173.963 104.112 173.11 101.703 170.349C98.6404 166.835 98.9416 161.614 99.4938 156.945L100.648 146.504C100.899 144.395 100.448 139.626 102.355 138.12C105.618 135.56 116.361 141.082 119.674 142.136Z" fill="#128FFF"/>
<path d="M161.743 89.9283H161.692L102.005 84.1051C101.603 84.0549 101.302 83.7035 101.302 83.3019C101.352 82.9003 101.703 82.5991 102.105 82.5991L161.793 88.4223C162.194 88.4223 162.546 88.7737 162.496 89.2255C162.445 89.6773 162.194 89.9283 161.743 89.9283Z" fill="#111111"/>
<path d="M162.846 141.082C162.796 141.082 162.746 141.082 162.696 141.082L102.205 130.239C101.803 130.189 101.502 129.787 101.602 129.335C101.653 128.934 102.054 128.632 102.506 128.733L162.997 139.576C163.399 139.626 163.7 139.978 163.7 140.379C163.7 140.781 163.298 141.132 162.846 141.082Z" fill="#111111"/>
<path d="M134.383 153.933C141.612 156.092 149.042 157.648 156.521 159.003C157.475 159.254 158.429 159.305 159.383 159.154C160.337 159.003 161.14 158.301 161.391 157.347C161.692 155.74 159.985 154.536 158.479 153.883C151.25 150.771 143.971 149.867 136.341 148.411C134.835 148.11 131.371 146.704 130.116 148.21C127.807 150.921 132.526 153.381 134.383 153.933Z" fill="#128FFF"/>
<path d="M136.391 101.976C137.596 102.629 139.001 102.779 140.357 102.88C146.079 103.382 151.802 103.884 157.525 103.733C158.68 103.683 159.884 103.633 160.838 102.98C161.792 102.328 162.294 100.922 161.591 100.018C161.24 99.6168 160.738 99.3156 160.236 99.165C154.413 96.8558 148.439 96.1028 142.264 95.651C139.102 95.4502 130.066 98.412 136.391 101.976Z" fill="white"/>
<path d="M137.144 52.6797C138.801 53.3825 140.708 53.4327 142.515 53.4327C148.64 53.3825 154.764 52.7299 160.838 52.1275C162.395 51.9769 164.001 51.7761 165.356 50.9729C166.712 50.1697 167.716 48.5633 167.364 47.0573C167.013 45.9027 166.109 44.9991 164.955 44.6477C163.8 44.2963 162.646 44.1457 161.441 44.1959C154.061 44.0955 146.732 45.6517 139.453 45.4007C137.596 45.3505 135.487 44.6979 134.283 46.5051C132.676 48.8143 134.985 51.7761 137.144 52.6797Z" fill="#128FFF"/>
<path d="M135.789 60.5111C135.388 60.5111 135.036 60.2099 135.036 59.7581C135.036 59.3565 135.337 59.0051 135.789 59.0051L164.303 57.3987C164.704 57.3987 165.056 57.6999 165.106 58.1015C165.106 58.5031 164.805 58.8545 164.403 58.9047L135.789 60.5111Z" fill="#111111"/>
<path d="M136.09 65.0791C135.688 65.0791 135.337 64.7277 135.337 64.3261C135.337 63.9245 135.688 63.5731 136.09 63.5731L163.75 62.7197C164.152 62.7197 164.503 63.0209 164.503 63.4727C164.503 63.8743 164.202 64.2257 163.8 64.2257L136.09 65.0791Z" fill="#111111"/>
<path d="M147.636 72.1574C143.268 72.1574 138.951 71.9566 134.584 71.6052C134.182 71.555 133.881 71.2036 133.881 70.802C133.881 70.4004 134.282 70.0992 134.684 70.0992C143.921 70.8522 153.258 70.802 162.495 69.9486C162.896 69.8984 163.298 70.1996 163.298 70.6514C163.348 71.053 163.047 71.4546 162.595 71.4546C157.676 71.9064 152.656 72.1574 147.636 72.1574Z" fill="#111111"/>
<path d="M163.449 78.8843H163.398L134.835 77.0269C134.433 76.9767 134.082 76.6253 134.132 76.2237C134.182 75.8221 134.533 75.4707 134.935 75.5209L163.499 77.3783C163.9 77.3783 164.252 77.7297 164.202 78.1815C164.252 78.5329 163.9 78.8843 163.449 78.8843Z" fill="#111111"/>
<path d="M157.626 113.221H157.475C149.845 111.665 142.114 110.811 134.333 110.711C133.931 110.711 133.58 110.36 133.58 109.958C133.58 109.556 133.931 109.205 134.333 109.205C142.214 109.305 150.046 110.159 157.776 111.715C158.178 111.765 158.479 112.117 158.479 112.518C158.479 112.92 158.027 113.271 157.626 113.221Z" fill="#111111"/>
<path d="M158.379 120.45C158.278 120.45 158.228 120.45 158.128 120.4C156.07 119.847 153.961 119.446 151.853 119.295L132.827 117.187C132.425 117.137 132.124 116.785 132.174 116.333C132.225 115.932 132.576 115.631 133.028 115.681L152.054 117.789C154.262 117.94 156.471 118.341 158.63 118.944C159.031 119.094 159.232 119.496 159.132 119.898C158.981 120.199 158.68 120.45 158.379 120.45Z" fill="#111111"/>
<path d="M157.927 125.42C148.891 125.118 139.905 124.265 131.019 122.96C130.618 122.91 130.317 122.508 130.367 122.106C130.417 121.705 130.819 121.404 131.22 121.454C140.055 122.759 148.991 123.562 157.927 123.914C158.328 123.914 158.68 124.265 158.68 124.717C158.68 125.068 158.328 125.42 157.927 125.42Z" fill="#111111"/>
<path d="M157.074 132.347H157.023C147.636 131.544 138.349 129.887 129.263 127.428C128.861 127.327 128.61 126.926 128.711 126.524C128.811 126.122 129.213 125.871 129.614 125.972C129.664 125.972 129.664 125.972 129.664 125.972C138.65 128.432 147.887 130.038 157.174 130.841C157.576 130.841 157.927 131.193 157.877 131.644C157.827 132.096 157.475 132.347 157.074 132.347Z" fill="#111111"/>
<path d="M153.61 165.73H153.509C144.975 164.676 136.441 163.17 128.108 161.262C127.707 161.212 127.405 160.811 127.506 160.409C127.606 160.007 127.958 159.706 128.359 159.807C128.409 159.807 128.409 159.807 128.46 159.807C136.793 161.714 145.277 163.17 153.76 164.224C154.162 164.274 154.513 164.626 154.463 165.027C154.413 165.429 154.011 165.78 153.61 165.73Z" fill="#111111"/>
<path d="M153.66 174.867C153.61 174.867 153.51 174.867 153.459 174.816L128.008 167.688C127.606 167.588 127.355 167.136 127.506 166.734C127.657 166.333 128.058 166.082 128.46 166.232L153.911 173.361C154.313 173.461 154.564 173.863 154.463 174.264C154.313 174.616 154.012 174.867 153.66 174.867Z" fill="#111111"/>
<path d="M152.756 182.547C152.706 182.547 152.656 182.547 152.555 182.547L127.957 176.523C127.556 176.423 127.305 176.021 127.405 175.62C127.505 175.218 127.907 174.967 128.309 175.068L152.907 181.092C153.308 181.142 153.609 181.543 153.559 181.945C153.509 182.347 153.208 182.648 152.756 182.547Z" fill="#111111"/>
<path d="M151.501 190.479C151.451 190.479 151.351 190.479 151.301 190.429L123.691 182.196C123.289 182.095 123.038 181.694 123.138 181.292C123.239 180.891 123.64 180.64 124.042 180.74C124.092 180.74 124.092 180.74 124.142 180.79L151.752 189.023C152.154 189.123 152.405 189.575 152.254 189.977C152.154 190.278 151.853 190.479 151.501 190.479Z" fill="#111111"/>
<path d="M124.996 202.778C121.934 202.477 119.223 204.685 118.922 207.748C118.621 210.81 120.83 213.521 123.892 213.822C126.954 214.123 129.665 211.914 129.966 208.852C130.267 205.94 128.209 203.28 125.297 202.828" fill="#128FFF"/>
<path d="M160.186 226.271C159.785 226.271 159.333 226.271 158.931 226.221C154.212 225.97 149.694 224.464 145.277 222.958C145.126 222.908 145.076 222.757 145.126 222.657C145.176 222.506 145.327 222.456 145.427 222.506C149.795 223.962 154.263 225.468 158.931 225.719C164.052 226.02 168.72 224.565 171.732 221.703C176.652 217.135 177.204 209.705 177.355 202.477V201.673L180.668 42.7402C180.869 32.901 181.069 22.6602 180.969 12.6704C180.969 12.5198 181.069 12.4194 181.22 12.4194C181.371 12.4194 181.471 12.5198 181.471 12.6704C181.571 22.7104 181.371 32.901 181.17 42.7904L177.857 202.577C177.706 209.906 177.154 217.436 172.084 222.155C169.222 224.765 164.955 226.271 160.186 226.271Z" fill="white"/>
<path d="M110.438 56.2439C109.484 58.0511 110.187 60.2599 111.994 61.2137C113.801 62.1675 116.01 61.4647 116.964 59.6575C119.474 55.2901 112.596 51.7259 110.438 56.2439Z" fill="white"/>
<path d="M111.592 66.5851C111.893 65.7819 112.345 65.0791 112.897 64.4265C113.45 63.7739 114.353 63.4727 115.207 63.5731C116.16 63.7739 116.813 64.7277 117.315 65.5811L121.08 71.6051C121.431 72.0569 121.632 72.6091 121.582 73.1613C121.431 73.6633 121.03 74.0649 120.528 74.2155C120.026 74.3661 119.474 74.4163 118.972 74.3661C116.863 74.3159 111.642 75.0689 109.986 73.6633C108.078 72.0569 110.889 68.1915 111.592 66.5851Z" fill="white"/>
<path d="M112.446 105.239C115.659 108.603 120.879 103.532 117.968 100.169C114.956 96.6048 109.032 101.725 112.446 105.239Z" fill="white"/>
<path d="M112.396 110.661C112.998 109.607 113.801 108.402 115.006 108.352C115.809 108.352 116.562 108.803 117.014 109.506C117.416 110.209 117.767 110.962 117.918 111.765L120.628 121.504C120.679 121.705 115.508 121.755 115.056 121.705C113.098 121.554 111.141 121.102 109.283 120.349C107.024 119.396 108.028 118.392 109.082 116.584L112.396 110.661Z" fill="white"/>
<path d="M108.631 146.604C107.125 147.909 106.623 150.269 107.627 151.975C108.53 153.381 110.137 154.134 111.793 153.883C113.45 153.582 114.755 152.427 115.358 150.871C116.964 146.253 112.145 143.592 108.631 146.604Z" fill="white"/>
<path d="M106.824 157.748C107.677 156.493 108.882 155.188 110.338 155.439C111.442 155.64 112.145 156.594 112.747 157.497C114.605 160.359 116.111 163.371 117.265 166.584C117.617 167.588 117.968 168.843 117.316 169.696C116.814 170.248 116.111 170.65 115.358 170.75C111.593 171.553 107.075 170.349 104.364 167.537C101.503 164.576 104.966 160.409 106.824 157.748Z" fill="white"/>
<path d="M181.973 35.411C185.236 30.9432 187.596 25.873 189.654 20.7024C190.959 17.3892 192.415 13.7748 195.577 12.2186C197.987 11.064 200.899 11.4154 203.308 12.6202C205.718 13.825 207.676 15.6824 209.483 17.6402C217.314 25.9734 223.589 35.9632 226.45 47.0574C227.505 51.1236 228.007 55.6918 225.798 59.256C223.689 62.7198 219.523 64.3764 215.507 64.7278C211.491 65.0792 207.475 64.3262 203.459 64.1756C198.238 63.9246 192.967 64.527 187.947 66.033C185.588 66.7358 183.128 67.6394 180.668 67.288C177.606 66.8864 175.146 64.5772 172.987 62.3182C170.829 60.0592 168.72 57.5994 167.666 54.5874C166.913 52.5292 166.712 50.0694 167.516 48.0112C168.269 46.0032 169.373 46.0032 171.08 45.2502C175.397 43.192 179.162 39.2262 181.973 35.411Z" fill="white"/>
<path d="M181.722 67.6894C181.32 67.6894 180.969 67.6894 180.567 67.6392C177.455 67.1874 174.895 64.9284 172.636 62.569C170.628 60.4104 168.319 57.9004 167.214 54.7378C166.361 52.529 166.311 50.1194 167.064 47.8604C167.716 46.1034 168.67 45.752 169.875 45.25C170.176 45.1496 170.477 44.999 170.829 44.8484C175.447 42.74 179.262 38.4228 181.622 35.21C185.186 30.3406 187.545 24.8186 189.252 20.5516C190.557 17.2384 192.063 13.4734 195.376 11.867C197.686 10.7626 200.698 10.9132 203.408 12.2686C205.868 13.4734 207.876 15.4312 209.683 17.389C218.167 26.4752 224.041 36.716 226.751 46.9568C228.157 52.4286 227.956 56.3944 226.049 59.4566C224.091 62.6192 220.225 64.6774 215.456 65.079C212.746 65.2296 209.985 65.1292 207.274 64.828C205.969 64.7276 204.663 64.577 203.308 64.5268C198.137 64.2758 192.917 64.8782 187.947 66.3842L187.043 66.6854C185.336 67.1372 183.529 67.6894 181.722 67.6894ZM198.79 11.867C197.736 11.867 196.682 12.118 195.728 12.5698C192.666 14.0758 191.21 17.6902 189.955 20.8528C188.248 25.1198 185.838 30.692 182.224 35.6618C179.814 38.975 175.949 43.3926 171.13 45.5512C170.778 45.7018 170.427 45.8524 170.126 45.9528C168.971 46.4046 168.268 46.6556 167.716 48.1114C167.013 50.1696 167.064 52.4286 167.867 54.4366C168.921 57.4486 171.13 59.9084 173.138 62.0168C175.296 64.2758 177.706 66.4846 180.618 66.836C182.676 67.1372 184.784 66.4846 186.792 65.832L187.746 65.5308C192.816 64.0248 198.087 63.3722 203.358 63.6734C204.663 63.7236 206.019 63.8742 207.324 63.9746C209.985 64.2758 212.695 64.3762 215.356 64.2256C219.924 63.824 223.589 61.9164 225.396 58.9546C227.153 56.0932 227.354 52.3282 225.998 47.0572C223.388 36.9168 217.565 26.8266 209.131 17.8408C207.073 15.6822 205.266 13.9754 203.057 12.9212C201.802 12.2686 200.296 11.9172 198.79 11.867Z" fill="#111111"/>
<path d="M183.378 64.4264C183.88 65.5308 184.332 66.7356 184.131 67.9906C183.78 69.9986 181.672 71.1532 179.814 72.0568C176.049 73.8138 171.832 75.621 167.917 74.2656C164.001 72.9102 161.843 68.8942 159.985 65.2296C158.73 62.7196 157.425 59.9586 158.027 57.2478C158.429 55.2398 159.784 53.5832 161.14 52.0772C163.349 49.6174 165.708 47.3082 168.268 45.1998C169.373 44.2962 170.025 43.242 171.28 43.8946C172.334 44.497 173.489 46.8564 174.192 47.8604C177.756 53.031 180.868 58.6032 183.378 64.4264Z" fill="white"/>
<path d="M170.829 75.1191C169.775 75.1191 168.771 74.9685 167.767 74.6171C163.801 73.2617 161.592 69.2959 159.634 65.3803C158.229 62.6193 157.074 59.9085 157.626 57.1475C158.078 54.9889 159.534 53.2821 160.839 51.7761C163.048 49.3163 165.457 47.0071 167.967 44.8987C168.168 44.7481 168.369 44.5473 168.52 44.3967C169.323 43.6437 170.126 42.8907 171.381 43.5433C172.234 43.9951 173.088 45.3505 173.791 46.5553C174.042 46.9569 174.242 47.3585 174.443 47.6095C178.108 52.8303 181.22 58.4527 183.73 64.2759C184.232 65.4807 184.734 66.7357 184.483 68.0409C184.082 70.1493 182.074 71.3541 179.965 72.3581C176.953 73.8139 173.841 75.1191 170.829 75.1191ZM170.477 44.0453C170.026 44.0453 169.674 44.3967 169.072 44.9489C168.871 45.0995 168.67 45.3003 168.469 45.4509C165.959 47.5593 163.6 49.8685 161.391 52.2781C160.136 53.6837 158.731 55.3403 158.329 57.2981C157.827 59.8081 158.931 62.4185 160.287 65.0289C162.194 68.7939 164.353 72.6091 168.018 73.8641C171.682 75.1191 175.799 73.4625 179.614 71.6553C181.572 70.7517 183.379 69.6473 183.68 67.8903C183.881 66.7859 183.479 65.6815 182.977 64.5771C180.467 58.7539 177.405 53.2319 173.791 48.0613C173.59 47.7601 173.339 47.4087 173.138 46.9569C172.536 45.9529 171.732 44.5975 171.03 44.1959C170.879 44.0955 170.678 44.0453 170.477 44.0453Z" fill="#111111"/>
<path d="M188.198 79.8881C189.051 80.5909 189.955 81.2937 190.457 82.2977C191.31 83.9543 190.708 86.1631 189.252 87.3679C187.746 88.5225 185.788 88.9743 183.981 88.5225C182.174 88.0707 180.467 87.1169 179.111 85.8117C176.15 83.2013 174.142 79.6873 172.334 76.1733C171.782 75.1191 171.23 73.9143 171.381 72.7095C171.632 70.9023 173.489 69.7477 175.246 69.2457C176.25 68.9445 179.262 67.5389 180.216 67.9405C181.37 68.3923 181.621 70.7517 182.123 71.8059C183.579 74.8681 185.637 77.6291 188.198 79.8881Z" fill="white"/>
<path d="M185.487 89.0245C184.935 89.0245 184.433 88.9743 183.881 88.8237C181.973 88.3217 180.266 87.3679 178.861 86.0627C176.049 83.5527 174.092 80.3399 171.983 76.3239C171.381 75.1693 170.829 73.9143 171.029 72.6593C171.381 70.2497 174.041 69.2457 175.196 68.8943C175.447 68.8441 175.798 68.6935 176.2 68.4927C178.007 67.7899 179.614 67.2377 180.367 67.5389C181.371 67.9405 181.722 69.2959 182.073 70.5007C182.174 70.9023 182.274 71.2537 182.425 71.6051C183.83 74.6673 185.838 77.3781 188.399 79.5869L188.7 79.8379C189.503 80.4403 190.206 81.1933 190.708 82.0467C191.611 83.8037 191.059 86.1631 189.453 87.5687C188.348 88.5225 186.943 89.0245 185.487 89.0245ZM179.814 68.2417C179.061 68.2417 177.405 68.8441 176.451 69.2457C175.999 69.3963 175.648 69.5469 175.397 69.6473C174.644 69.8983 172.084 70.8019 171.782 72.8099C171.632 73.8641 172.084 74.9183 172.686 76.0227C174.744 79.9885 176.652 83.1009 179.363 85.5607C180.668 86.8157 182.274 87.7193 184.031 88.1711C185.738 88.6229 187.595 88.2213 189.001 87.1169C190.356 85.9623 190.808 83.9543 190.105 82.4985C189.654 81.6953 189.001 81.0427 188.298 80.4905L187.997 80.1893C185.387 77.9303 183.278 75.1191 181.873 71.9565C181.722 71.5549 181.571 71.1533 181.471 70.7517C181.17 69.7979 180.818 68.5429 180.166 68.2919C180.015 68.2417 179.915 68.2417 179.814 68.2417Z" fill="#111111"/>
<path d="M219.673 57.8002C219.322 57.8002 218.97 57.75 218.669 57.6496C217.163 57.1978 216.008 55.993 214.904 54.6376C207.023 45.2 199.141 34.7584 194.824 22.4092C194.121 20.4012 193.569 18.2928 194.222 16.3852C194.623 15.1804 195.577 14.2266 196.782 13.7748C197.585 13.4234 198.539 13.4736 199.342 13.9254C199.442 13.9756 199.493 14.1764 199.442 14.2768C199.392 14.3772 199.242 14.4274 199.091 14.3772C198.438 14.0258 197.635 13.9756 196.983 14.2768C195.928 14.6784 195.125 15.5318 194.724 16.586C194.121 18.3932 194.673 20.4012 195.326 22.3088C199.593 34.5576 207.424 44.949 215.306 54.3364C216.41 55.6416 217.414 56.746 218.82 57.1978C219.673 57.4488 220.577 57.2982 221.279 56.8464C221.781 56.5452 222.083 56.0934 222.183 55.491C222.183 55.3404 222.334 55.24 222.484 55.2902C222.635 55.2902 222.735 55.4408 222.685 55.5914C222.585 56.2942 222.183 56.8966 221.53 57.2982C220.978 57.5994 220.376 57.8002 219.673 57.8002Z" fill="#111111"/>
<path d="M223.389 5.24072L224.895 9.80892C224.995 10.1101 225.296 10.2607 225.597 10.1603C225.748 10.1101 225.848 10.0097 225.899 9.85912C227.405 6.39532 228.961 2.88132 231.22 -0.130678C231.421 -0.381678 231.722 -0.431878 231.973 -0.231078C232.123 -0.0804778 232.224 0.120322 232.174 0.321122C230.969 5.89332 228.66 11.1643 225.346 15.8329C225.045 16.2345 224.694 16.6863 224.192 16.5859C223.589 16.5357 223.389 15.7325 223.338 15.1301L223.087 12.0177C223.087 11.7165 222.786 11.5157 222.485 11.5157C222.284 11.5157 222.134 11.6663 222.033 11.8169C221.28 13.4233 220.377 14.9795 219.423 16.4855C219.272 16.7365 218.921 16.7867 218.67 16.6361C218.519 16.5357 218.419 16.3851 218.419 16.1843C218.268 12.9213 220.728 8.05192 222.334 5.14032C222.485 4.88932 222.786 4.78892 223.087 4.88932C223.238 4.98972 223.338 5.09012 223.389 5.24072Z" fill="#128FFF"/>
<path d="M228.81 19.3972C229.362 19.0458 230.015 18.6442 230.668 18.845C231.119 19.0458 231.571 19.347 231.973 19.6482C233.328 20.4012 234.935 19.5478 236.24 18.6944C237.696 17.6402 239.252 16.837 240.908 16.1844C241.461 15.9836 242.063 15.8832 242.665 15.7828C243.218 15.7326 243.77 16.1342 243.82 16.6864C243.87 17.1382 243.669 17.5398 243.268 17.7406L234.031 22.61C233.027 23.112 231.973 23.6642 230.868 23.614C229.413 23.5638 227.907 22.5096 226.601 23.1622C225.899 23.5136 222.836 27.4292 223.489 24.0658C223.84 22.4594 227.505 20.3008 228.81 19.3972Z" fill="#128FFF"/>
<path d="M225.346 33.5032C225.195 33.704 225.195 34.0052 225.396 34.1558C225.446 34.206 225.496 34.2562 225.597 34.2562C226.651 34.457 227.605 34.8586 228.508 35.4108C229.161 35.9128 229.663 36.5654 230.315 37.0674C231.721 38.222 233.478 38.724 235.285 38.9248C235.536 38.975 235.787 38.7742 235.787 38.5232C235.787 38.3726 235.737 38.1718 235.586 38.0714C232.223 35.712 228.408 30.1398 225.346 33.5032Z" fill="#128FFF"/>
<path d="M69.7253 210.157C69.9763 210.157 70.2273 210.207 70.4281 210.258C70.6791 210.358 70.8297 210.509 70.9301 210.76C71.0305 211.211 70.5787 211.563 70.1771 211.814C67.8177 213.119 65.0065 213.32 62.5969 214.575C61.6431 215.077 60.6893 215.78 59.6351 215.93C59.4845 215.98 59.2837 215.93 59.1331 215.83C58.9825 215.629 58.9323 215.328 59.0327 215.077C59.4845 213.47 60.8399 212.567 62.1953 211.864C63.6511 211.061 65.2575 210.559 66.9141 210.258C67.8679 210.157 68.7715 210.107 69.7253 210.157Z" fill="#111111"/>
<path d="M57.9788 124.315C54.264 127.478 51.1516 131.544 50.0472 136.313C48.9428 141.082 50.248 146.503 53.9126 149.716C54.8162 150.469 56.1716 151.122 57.1254 150.419C57.5772 150.017 57.8784 149.515 58.029 148.963L61.1916 140.981C63.1996 135.911 65.2076 130.891 67.2156 125.821C67.9184 124.064 69.9766 120.901 69.575 118.994C69.0228 116.434 66.1614 118.743 64.9566 119.446C62.4968 120.901 60.1374 122.508 57.9788 124.315Z" fill="#111111"/>
<path d="M65.8606 120.751C66.8144 119.195 67.8184 117.689 69.0734 116.685C70.3284 115.681 71.9348 115.379 73.3404 116.283C75.1978 117.438 76.252 120.399 76.9046 123.211C79.3142 133.552 78.4608 144.646 80.268 155.188C80.7198 157.798 81.272 160.76 80.3182 162.919C79.4146 164.877 77.5572 165.278 75.9508 165.73C69.4248 167.437 63.3004 171.905 56.5736 171.553C54.4652 171.453 50.9512 170.348 50.9512 166.433C50.9512 162.818 52.5074 158.652 53.3106 155.339C55.2182 147.407 57.427 139.526 60.2884 132.297C61.8446 128.281 63.702 124.415 65.8606 120.751Z" fill="#128FFF"/>
<path d="M82.3758 107.699C82.8276 109.305 83.2794 111.012 82.7272 112.568C81.924 114.827 79.3136 115.982 76.9542 115.781C74.5948 115.58 72.4362 114.275 70.5286 112.92C67.7676 110.912 65.2074 108.653 62.8982 106.193C60.087 103.131 57.4766 99.416 57.577 95.2494C57.6272 91.2836 60.1372 87.7194 63.099 85.0588C64.7556 83.603 66.6632 82.6492 68.9222 83.3018C70.4784 83.7536 71.4824 85.3098 72.4864 86.5146C75.649 90.38 77.9582 94.898 79.7654 99.5666C80.7192 102.177 81.5726 104.938 82.3758 107.699Z" fill="white"/>
<path d="M77.5068 116.183C77.306 116.183 77.1052 116.183 76.9547 116.133C74.4447 115.932 72.1856 114.526 70.3282 113.171C67.517 111.163 64.9569 108.904 62.5975 106.394C58.8827 102.378 57.1257 98.7131 57.1759 95.1489C57.2261 90.6309 60.2882 86.9663 62.7982 84.6571C64.8062 82.8499 66.9146 82.1973 68.9728 82.8499C70.4286 83.2515 71.3824 84.5065 72.286 85.6109L72.6877 86.1631C75.549 89.6771 77.9586 93.9943 80.0168 99.3155C80.9706 101.725 81.824 104.436 82.7276 107.548C83.2296 109.255 83.6313 111.012 83.0791 112.669C82.2759 115.078 79.7658 116.183 77.5068 116.183ZM67.4167 83.4523C66.0613 83.4523 64.7058 84.0547 63.3002 85.3097C60.8906 87.4683 57.9791 90.9823 57.9289 95.2493C57.8787 98.6127 59.5855 102.077 63.1497 105.942C65.4589 108.402 67.9689 110.661 70.7298 112.619C72.4868 113.874 74.6455 115.229 76.9547 115.43C79.0128 115.631 81.5731 114.627 82.3261 112.468C82.8281 111.012 82.4264 109.456 81.9746 107.799C81.071 104.687 80.2176 102.026 79.2638 99.6669C77.2056 94.3959 74.8462 90.1791 72.035 86.7153C71.8844 86.5145 71.7338 86.3639 71.5832 86.1631C70.7298 85.1089 69.8765 84.0045 68.6717 83.6531C68.3203 83.5025 67.8685 83.4523 67.4167 83.4523Z" fill="#111111"/>
<path d="M68.4204 111.163C65.6092 113.974 60.9908 114.175 57.3764 112.568C53.762 110.962 51.001 107.95 48.6416 104.838C47.6376 103.482 46.6336 101.976 46.5834 100.32C46.5332 98.3116 47.8886 96.404 49.5954 95.3498C51.3022 94.2956 53.3604 93.8438 55.3182 93.392C55.4186 83.0508 60.539 73.5128 65.8602 64.5772C66.7136 63.1214 67.6172 61.6154 68.9726 60.511C70.328 59.4066 72.085 58.8042 73.7416 59.3062C75.5488 59.8584 76.6532 61.6656 77.4062 63.4226C80.0668 69.798 79.5146 77.1774 76.8038 83.5026C75.0468 87.4684 72.5368 91.133 69.4746 94.2454C67.9184 95.8016 66.312 97.2574 64.6554 98.6128C62.9486 100.069 64.2538 102.026 64.9566 103.834C65.1072 104.536 68.4706 111.113 68.4204 111.163Z" fill="#111111"/>
<path d="M78.4606 110.912C78.1092 110.912 77.7578 110.811 77.4064 110.661C76.7538 110.41 76.302 109.858 76.1012 109.205C76.051 109.105 76.1514 108.954 76.2518 108.954C76.3522 108.904 76.5028 109.004 76.5028 109.105C76.8542 110.159 78.0088 110.711 79.063 110.36C79.1132 110.36 79.1132 110.36 79.1634 110.309C79.2638 110.259 79.4144 110.309 79.4646 110.41C79.5148 110.51 79.4646 110.661 79.3642 110.711C79.1132 110.811 78.812 110.912 78.4606 110.912Z" fill="#111111"/>
<path d="M68.1193 104.285C66.9145 104.135 65.7097 104.386 64.6555 105.038C63.9527 105.44 63.4005 106.092 63.1495 106.845C62.8483 108.151 63.9025 109.456 65.2077 109.807C66.5129 110.159 67.8683 109.657 68.9727 108.904" fill="white"/>
<path d="M66.061 110.259C65.7598 110.259 65.4084 110.209 65.1072 110.159C63.7016 109.807 62.4466 108.352 62.798 106.745C63.049 105.842 63.6514 105.139 64.4546 104.687C65.559 104.034 66.8642 103.733 68.1694 103.884C68.3702 103.934 68.5208 104.085 68.5208 104.285C68.4706 104.486 68.32 104.637 68.1192 104.637C67.0148 104.486 65.8602 104.737 64.9064 105.34C64.2538 105.691 63.802 106.243 63.551 106.896C63.3 108 64.2538 109.105 65.308 109.406C66.7136 109.757 68.069 109.054 68.7718 108.552C68.9224 108.452 69.1734 108.502 69.2738 108.653C69.3742 108.803 69.324 109.054 69.1734 109.155C68.2196 109.858 67.1654 110.209 66.061 110.259Z" fill="#111111"/>
<path d="M74.997 96.3538C74.9468 96.3538 74.8464 96.3538 74.7962 96.4542C74.7962 96.4542 74.7962 96.4542 74.7962 96.5044C74.746 96.906 74.7962 97.3578 74.9468 97.7092C75.0472 97.9602 75.1978 98.2112 75.3986 98.412C75.4488 98.5124 75.5492 98.5626 75.6496 98.6128C75.75 98.663 75.9006 98.7132 76.001 98.663C76.1014 98.6128 76.1014 98.5124 76.0512 98.412C75.9006 98.1108 75.8002 97.8096 75.6998 97.4582C75.5492 97.0566 75.2982 96.7052 74.997 96.3538Z" fill="#111111"/>
<path d="M73.0885 116.785C75.0965 116.333 76.5021 118.592 77.2551 120.5L86.1907 143.542C87.0441 145.7 88.2991 148.261 90.6585 148.461C92.0139 148.562 93.3191 147.759 94.1725 146.704C94.9757 145.6 95.5781 144.345 95.9797 143.04L101.05 147.708C99.8451 149.767 98.5399 151.775 96.6825 153.23C94.8251 154.686 92.3653 155.59 90.0561 155.138C87.1445 154.536 85.0863 152.076 83.3293 149.666C79.3133 144.044 76.1005 137.869 73.6909 131.393C72.7371 128.733 68.8717 117.789 73.0885 116.785Z" fill="#111111"/>
<path d="M99.2432 122.608C100.548 120.149 102.657 118.241 104.715 116.384C106.171 115.078 108.279 113.673 109.936 114.727C111.592 115.781 111.09 118.492 110.137 120.299C108.731 122.96 106.874 125.369 104.665 127.377C106.321 127.829 107.928 128.532 109.384 129.436C110.789 130.389 111.994 131.895 112.195 133.602C112.496 136.012 110.839 138.271 109.133 139.978C106.874 142.186 104.163 144.445 101.251 145.751C97.3356 147.508 97.5364 144.546 97.687 141.534C97.8878 135.309 96.0806 128.381 99.2432 122.608Z" fill="white"/>
<path d="M59.1338 214.725L60.3888 214.625C65.5594 201.272 63.2 185.961 68.2702 172.557C69.977 179.585 69.475 186.965 68.3204 194.093C67.1658 201.222 65.4088 208.25 64.5554 215.428L66.7642 215.93C72.0352 197.959 75.499 179.535 77.0552 160.861L64.7562 166.684C61.0414 168.391 59.7362 168.742 60.2884 173.059C61.3426 181.844 61.5936 190.73 61.0414 199.565C60.6398 204.635 60.0374 209.705 59.1338 214.725Z" fill="#111111"/>
<path d="M76.2516 217.386C76.9544 217.737 77.7576 218.39 77.607 219.143C77.4564 219.795 76.7536 220.147 76.101 220.297C72.5368 221.151 68.7718 220.197 66.061 217.687C65.6594 217.336 65.308 216.884 65.1072 216.382C64.9064 215.88 65.0068 215.277 65.3582 214.826C66.3622 213.822 68.822 215.328 69.9766 215.579C72.1854 216.03 74.2436 216.382 76.2516 217.386Z" fill="#111111"/>
<path d="M99.2929 146.654C98.8913 146.654 98.5399 146.554 98.1885 146.353C97.0841 145.6 97.1845 143.692 97.2347 141.734V141.534C97.2849 139.726 97.1845 137.769 97.1343 135.911C96.8833 131.343 96.6323 126.624 98.8913 122.407C100.247 119.897 102.405 117.94 104.464 116.082C106.723 114.024 108.68 113.472 110.136 114.375C111.943 115.58 111.592 118.291 110.437 120.45C109.132 122.96 107.375 125.219 105.367 127.227C106.873 127.678 108.279 128.331 109.584 129.134C111.14 130.138 112.245 131.745 112.546 133.552C112.797 135.66 111.743 137.869 109.383 140.228C106.622 142.939 103.911 144.897 101.351 146.052C100.699 146.403 99.9957 146.604 99.2929 146.654ZM108.63 114.727C107.425 114.727 106.02 115.681 104.966 116.685C102.958 118.492 100.899 120.399 99.5439 122.809C97.3853 126.825 97.6363 131.443 97.8371 135.911C97.9375 137.819 98.0379 139.726 97.9375 141.584V141.785C97.8873 143.491 97.7869 145.248 98.5399 145.801C98.9917 146.102 99.8451 146.001 101 145.499C103.51 144.395 106.12 142.487 108.781 139.827C110.99 137.618 111.994 135.61 111.743 133.753C111.441 132.146 110.488 130.69 109.082 129.837C107.626 128.933 106.07 128.281 104.464 127.829C104.263 127.779 104.162 127.578 104.213 127.377C104.213 127.327 104.263 127.277 104.313 127.227C106.472 125.219 108.329 122.859 109.735 120.249C110.488 118.843 111.291 116.233 109.684 115.179C109.433 114.827 109.032 114.727 108.63 114.727Z" fill="#111111"/>
</g>
<defs>
<clipPath id="clip0_137_3280">
<rect width="251" height="251" fill="white" transform="translate(0.5)"/>
</clipPath>
</defs>
</svg>
