<svg width="177" height="217" viewBox="0 0 177 217" fill="none" xmlns="http://www.w3.org/2000/svg">
<path d="M144.986 102.19C140.79 104.216 119.122 95.6791 108.813 91.1574L112.973 60.229L142.635 56.7925L158.009 86.4548C155.416 90.8559 149.182 100.165 144.986 102.19Z" fill="#FFDF01"/>
<rect x="12.4102" y="79.2202" width="9.26405" height="137.46" rx="4.63203" fill="#1C2D35"/>
<rect x="155.658" y="79.2202" width="9.26405" height="137.46" rx="4.63203" fill="#1C2D35"/>
<rect width="9.26381" height="95.1419" rx="4.63191" transform="matrix(-0.997135 0.0756369 0.0756369 0.997135 145.723 121.181)" fill="#1C2D35"/>
<rect x="118.36" y="121.181" width="9.26381" height="95.1419" rx="4.63191" transform="rotate(4.33782 118.36 121.181)" fill="#1C2D35"/>
<rect x="0.4729" y="70.9003" width="176.527" height="16.6398" rx="8.31992" fill="#386CB9"/>
<rect x="89.8217" y="109.606" width="73.7941" height="16.6398" rx="8.31992" fill="#386CB9"/>
<path d="M100.403 54.7695C103.272 50.6852 114.009 47.719 117.077 45.738C126.328 44.0363 141.725 39.7482 144.581 43.3802C151.972 52.7809 158.343 64.8591 158.187 68.8704C158.074 71.7854 132.218 73.4679 113.04 72.3717C105.313 71.1062 104.56 56.9396 104.809 56.2821C106.321 52.2896 96.8173 59.8747 100.403 54.7695Z" fill="#FFDF01"/>
<path d="M113.255 47.3875L104.291 28.2155L130.336 41.7805L113.255 47.3875Z" fill="#1C2D35"/>
<path d="M119.949 46.8429L116.047 41.5998L127.506 30.7477L131.032 40.6942C131.032 40.6942 131.368 44.3111 129.689 48.4705C128.009 52.63 125.155 56.2081 120.62 55.1618C118.74 54.7278 119.389 49.4351 119.949 46.8429Z" fill="#EF9673"/>
<path d="M118.941 45.5786C124.176 45.1446 127.327 36.7161 128.166 32.5562L116.047 41.5995L118.941 45.5786Z" fill="#BF5755"/>
<path d="M105.336 30.5389L103.158 25.6567C102.487 21.4977 100.193 14.0387 110.866 9.7441C120.752 5.76595 125.723 13.9031 127.455 18.6045C127.623 19.147 128.125 21.7147 128.796 27.6458C129.633 35.0596 124.606 38.676 123.266 40.1226C122.193 41.2799 120.417 41.9309 119.412 41.9309C111.1 42.5095 106.788 34.6979 105.336 30.5389Z" fill="#EF9673"/>
<path d="M122.012 23.1511C121.739 24.9575 118.83 25.6406 117.41 25.7564C117.069 26.4512 117.58 26.6248 119.796 26.1038C121.569 25.6869 122.069 23.9038 122.012 23.1511Z" fill="#1C2D35"/>
<path d="M105.493 28.1986C106.663 29.6244 109.428 28.5535 110.665 27.8398C111.31 28.2527 110.978 28.6983 108.871 29.5134C107.185 30.1655 105.839 28.8905 105.493 28.1986Z" fill="#1C2D35"/>
<path d="M113.468 33.4606L112.611 28.2155L114.153 32.3754L115.524 32.0137L115.867 34.0032L115.181 32.7372L113.468 33.4606Z" fill="#1C2D35"/>
<path d="M114.894 36.0486C114.853 36.0922 114.816 36.134 114.781 36.1736C114.811 36.1335 114.849 36.0918 114.894 36.0486C115.656 35.2312 117.538 33.7788 119.846 33.6415C118.464 34.154 115.656 35.3121 114.894 36.0486Z" fill="#1C2D35"/>
<path d="M122.26 22.7306C118.983 20.4421 116.027 22.3051 115.777 22.9132C115.59 23.3693 115.905 24.2463 116.843 23.603C118.56 22.4258 121.129 22.4039 122.26 22.7306Z" fill="#1C2D35"/>
<path d="M105.342 28.0249C106.869 24.1514 110.286 23.9117 110.808 24.2652C111.2 24.5303 111.395 25.447 110.283 25.48C108.249 25.5403 106.109 27.072 105.342 28.0249Z" fill="#1C2D35"/>
<ellipse cx="109.717" cy="29.8433" rx="1.08521" ry="0.542604" fill="#1C2D35"/>
<ellipse cx="119.484" cy="26.5876" rx="1.08521" ry="0.542604" fill="#1C2D35"/>
<path d="M127.873 20.2573C126.901 20.2573 126.947 22.1866 127.352 23.1512L128.22 28.2155C128.393 28.3361 129.018 28.5772 130.128 28.5772C131.516 28.5772 131.516 26.9494 131.342 23.6938C131.169 20.4382 129.087 20.2573 127.873 20.2573Z" fill="#ED967A"/>
<path d="M128.114 27.1302C127.494 24.6941 126.66 20.0842 128.96 21.1336L129.783 21.7421C129.852 21.7882 129.916 21.8359 129.974 21.8832L129.783 21.7421C129.131 21.3005 128.114 21.0038 128.114 22.6327V23.7571C128.509 23.3199 129.399 22.6702 129.805 23.5697C129.354 23.3199 128.419 24.0944 128.283 25.4437C128.148 26.7929 128.114 26.8179 128.114 27.1302Z" fill="#B7554C"/>
<path d="M103.926 46.2091C99.7048 54.623 93.1196 56.8467 89.9114 67.6647C89.5328 68.9414 90.3166 75.1689 92.9507 75.2373C95.5482 75.3048 101.9 74.5161 103.251 70.1889L112.538 46.9303C113.888 46.2692 115.505 42.1767 115.505 41.5997C115.505 41.0228 113.371 39.6096 111.345 39.4293C109.938 36.4243 106.391 33.3717 105.446 31.7851C104.5 30.1984 103.926 31.7851 103.926 32.6866L105.446 42.4228L103.926 46.2091Z" fill="#EF9673"/>
<path d="M106.649 19.076C105.17 19.9418 103.119 25.9307 102.278 28.8168C100.885 25.8259 99.573 21.3524 99.5886 19.2564C99.7567 14.5664 101.27 11.3195 104.632 8.07252C107.322 5.47498 111.468 5.54713 113.205 5.9079C120.434 2.11982 131.361 5.36677 134.723 13.8449C135.261 15.2028 136.236 20.2504 138.421 27.5541C143.464 44.4084 167.177 64.523 166.495 65.2546C163.301 68.6819 159.603 67.9604 157.586 65.9762C150.189 47.5769 143.296 42.3041 138.421 42.7065C133.546 43.1089 130.688 43.9692 130.688 43.9692L128.167 32.4245L128.335 30.9814L128.335 28.0953C128.615 28.3358 129.979 28.7042 130.688 28.0953C131.529 27.3737 131.205 24.2737 130.857 22.6837C130.184 19.6172 127.662 20.1583 127.494 20.3387L126.318 26.4718C126.094 25.6901 125.309 23.5856 124.3 20.8799C123.331 18.2784 117.688 16.7911 115.559 16.0095L119.761 22.6837C113.441 24.5597 109.507 21.0602 108.33 19.076C109.675 23.9825 114.83 24.1268 117.24 23.5856C110.381 25.8946 107.322 21.5413 106.649 19.076Z" fill="#1C2D35"/>
<path d="M106.072 31.5844C107.408 35.1582 109.856 37.8385 110.914 38.7319C112.116 38.589 113.752 40.1019 114.42 40.8762C113.218 39.5897 111.248 39.1489 110.413 39.0893L108.91 37.6598C107.842 36.8021 104.458 28.5467 103.568 26.045L106.072 31.5844Z" fill="#BF5755"/>
<path d="M109.207 70.4817C109.207 70.4817 111.053 61.2575 107.361 58.5445L94.609 75.1843C101.153 75.546 107.529 71.5669 109.207 70.4817Z" fill="#EF9673"/>
<path d="M103.645 69.0345C105.022 64.5312 110.487 51.3017 111.475 49.5579C109.904 54.9694 104.833 67.2385 103.645 69.0345Z" fill="#BF5755"/>
<path d="M141.605 63.0735L143.287 68.9107L149.984 71.0303L160.955 74.8775C160.178 69.439 156.88 63.3183 154.454 60.2195C154.454 60.2195 149.67 59.1212 147.161 59.6785C144.652 60.2358 141.605 63.0735 141.605 63.0735Z" fill="#EF9673"/>
<path d="M110.558 73.975L118.57 74.5851L135.157 70.4041L141.221 69.3215L147.285 68.7802C155.059 68.2389 159.413 72.2084 160.657 73.6518C161.901 75.0953 158.066 80.1183 154.437 81.0806C143.139 80.5393 122.675 79.7815 122.302 81.0806C121.836 82.7045 117.875 84.2218 113.99 84.0523C110.471 83.8989 105.399 85.3272 105.399 83.5229C105.399 83.1427 105.562 82.8735 105.817 82.6844C103.975 82.9394 102.131 83.0685 102.348 82.1106C102.214 81.4304 103.242 81.0307 104.562 80.817C102.535 80.8367 100.589 80.6188 100.742 79.5534C100.839 78.8808 102.46 78.7143 104.167 78.6926C101.8 78.3313 102.2 77.1582 102.764 77.0274C103.541 76.847 106.236 76.8037 108.879 76.3894C109.934 76.2241 110.824 76.1908 111.512 76.2104C111.082 76.0786 110.664 75.8808 110.391 75.6028C109.395 74.5924 109.729 73.8547 110.558 73.975Z" fill="#EF9673"/>
<path d="M135.056 70.6611C139.921 69.4622 150.661 68.8525 150.661 68.8525C150.661 68.8525 142.103 68.1917 134.888 69.9377C127.673 71.6836 121.8 73.7942 121.8 73.7942C121.8 73.7942 129.18 72.1092 135.056 70.6611Z" fill="#BF5755"/>
<path d="M170.846 57.0705C152.576 55.7492 137.433 26.9135 132.145 12.6608C142.779 51.5651 165.441 62.0253 168.231 61.4747C170.462 61.0343 170.904 58.355 170.846 57.0705Z" fill="#1C2D35"/>
<rect x="22.3684" y="2" width="58.2186" height="58.2186" rx="29.1093" stroke="#386CB9" stroke-width="4"/>
<circle cx="94.1625" cy="44.1317" r="1.75562" stroke="#386CB9" stroke-width="3"/>
<circle cx="88.1034" cy="37.3491" r="2.56953" stroke="#386CB9" stroke-width="3"/>
<path d="M51.4776 11.455C47.6619 11.455 43.9319 12.5864 40.7593 14.7063C37.5866 16.8262 35.1138 19.8393 33.6536 23.3646C32.1934 26.8898 31.8114 30.7689 32.5558 34.5113C33.3002 38.2537 35.1376 41.6913 37.8357 44.3895C40.5338 47.0876 43.9715 48.925 47.7139 49.6694C51.4562 50.4138 55.3353 50.0318 58.8606 48.5716C62.3859 47.1113 65.3989 44.6386 67.5188 41.4659C69.6387 38.2933 70.7702 34.5632 70.7702 30.7475C70.7702 25.6308 68.7376 20.7237 65.1196 17.1056C61.5015 13.4876 56.5944 11.455 51.4776 11.455ZM51.4776 47.6285C48.1389 47.6285 44.8751 46.6385 42.0991 44.7836C39.323 42.9287 37.1593 40.2922 35.8816 37.2076C34.6039 34.123 34.2696 30.7288 34.921 27.4542C35.5724 24.1796 37.1801 21.1717 39.541 18.8109C41.9018 16.45 44.9097 14.8422 48.1843 14.1909C51.4589 13.5395 54.8531 13.8738 57.9377 15.1515C61.0223 16.4292 63.6588 18.5929 65.5137 21.3689C67.3686 24.145 68.3587 27.4088 68.3587 30.7475C68.3587 35.2247 66.5801 39.5184 63.4143 42.6842C60.2485 45.85 55.9548 47.6285 51.4776 47.6285Z" fill="#386CB9"/>
<path d="M52.587 31.2299V22.0056C52.587 21.6858 52.4599 21.3791 52.2338 21.153C52.0077 20.9268 51.701 20.7998 51.3812 20.7998C51.0614 20.7998 50.7547 20.9268 50.5286 21.153C50.3024 21.3791 50.1754 21.6858 50.1754 22.0056V32.52L57.2895 37.3432C57.4206 37.4418 57.5703 37.5126 57.7297 37.5513C57.889 37.59 58.0546 37.5958 58.2163 37.5683C58.3779 37.5408 58.5323 37.4807 58.6699 37.3915C58.8075 37.3024 58.9255 37.1861 59.0167 37.0498C59.1078 36.9135 59.1702 36.76 59.2 36.5988C59.2298 36.4375 59.2264 36.2719 59.19 36.112C59.1537 35.9521 59.085 35.8013 58.9884 35.6689C58.8918 35.5364 58.7691 35.425 58.6279 35.3416L52.587 31.2299Z" fill="#386CB9"/>
<path d="M39.4198 30.6753C39.4087 28.5061 39.9866 26.3746 41.0918 24.5081C42.1969 22.6415 43.7879 21.1099 45.6951 20.0764C47.6023 19.043 49.7542 18.5465 51.9214 18.64C54.0886 18.7334 56.1897 19.4132 58.0009 20.607L59.0258 18.9671C57.3055 17.8402 55.3569 17.1083 53.32 16.8239C51.2831 16.5396 49.2086 16.7099 47.2454 17.3226C45.2821 17.9354 43.479 18.9753 41.9655 20.3677C40.4519 21.7602 39.2656 23.4705 38.4916 25.3759C37.7176 27.2814 37.3753 29.3345 37.4891 31.388C37.603 33.4415 38.1702 35.4442 39.1501 37.2524C40.13 39.0606 41.4981 40.6293 43.1563 41.8459C44.8145 43.0624 46.7216 43.8967 48.7405 44.2886L49.0661 42.4437C46.3506 41.8895 43.909 40.4167 42.1521 38.2733C40.3952 36.1299 39.4303 33.4467 39.4198 30.6753Z" fill="#386CB9"/>
<path d="M82.2132 109.977C87.5819 91.8576 112.971 110.816 124.995 122.56C121.919 122.56 115.096 123.231 112.412 125.915C109.728 128.6 124.156 170.655 131.706 191.347L99.8293 194.702C91.7203 174.01 76.8445 128.096 82.2132 109.977Z" fill="#FCC100"/>
<path d="M124.995 122.56C159.892 131.284 160.227 103.825 156.033 89.0054C144.624 103.098 126.673 94.8774 119.123 89.0054C110.734 86.4888 97.3126 83.1333 81.3743 98.2328C68.6236 110.312 66.5544 151.92 67.1136 171.214L93.9816 177.974C91.4495 171.214 83.6112 135.982 81.3743 119.204C81.3743 88.3343 110.455 108.579 124.995 122.56Z" fill="#FCC100"/>
<path d="M88.924 102.427C101.675 101.085 118.284 115.29 124.995 122.56C122.311 121.889 118.284 123.399 116.606 124.238C115.264 114.842 97.5922 105.783 88.924 102.427Z" fill="#F1A300"/>
<path d="M139.199 96.7643H138.656C142.011 104.146 145.71 103.713 146.795 102.99C144.782 104.332 140.284 100.201 139.199 96.7643Z" fill="#F1A400"/>
<path d="M143.45 119.204C153.429 116.211 153.516 100.19 151.839 93.1997L150.161 94.0386C150.161 94.3182 151 96.5217 151 103.266C151 104.105 151 111.655 146.805 115.849C146.142 116.512 142.611 120.043 129.189 119.204C125.84 118.995 102.346 103.266 94.796 100.749C88.7562 98.7362 85.5685 102.148 84.7297 104.105C93.1183 95.7163 107.379 108.299 119.962 115.849C128.737 121.114 135.061 121.721 143.45 119.204Z" fill="#F1A400"/>
<path d="M127.512 183.797L97.3126 187.152C101.216 187.56 104.829 186.912 111.526 186.475C116.362 186.159 124.995 184.636 127.512 183.797Z" fill="#F1A400"/>
<path d="M82.2131 118.365C81.542 106.286 86.4074 103.825 88.924 104.105C81.542 106.118 83.052 121.721 84.7297 129.271L93.1183 171.214L93.9816 178.516C89.7873 160.9 82.8842 130.445 82.2131 118.365Z" fill="#F1A400"/>
<path d="M90.6017 169.536L70.469 164.503C72.6392 165.675 73.0009 165.856 79.5122 167.484C83.023 168.361 88.0851 169.536 90.6017 169.536Z" fill="#F1A400"/>
<path d="M104.643 207.432C84.8579 210.844 89.5768 206.011 94.4095 203.168C82.1289 208.626 82.47 214.539 84.1757 216.813L126.817 213.402C128.181 209.991 126.817 202.316 125.964 198.904V200.61L104.643 207.432Z" fill="#386CB9"/>
<path d="M66.2534 184.808C46.2966 182.612 52.1684 179.273 57.5989 177.879C44.2876 179.726 42.9794 185.502 43.9892 188.16L85.9094 196.679C88.1644 193.779 88.9768 186.026 89.1012 182.511L88.6292 184.151L66.2534 184.808Z" fill="#386CB9"/>
<path d="M106.349 198.052V193.787L125.111 192.082L125.964 200.61C105.496 209.479 90.7327 209.781 90.1455 207.433C89.4632 204.704 100.664 200.041 106.349 198.052Z" fill="#EF9673"/>
<path d="M70.488 176.265L71.6678 172.167L90.1693 175.719L88.6292 184.151C66.5066 187.011 52.2359 183.216 52.3215 180.796C52.4209 177.985 64.4739 176.604 70.488 176.265Z" fill="#EF9673"/>
<rect x="118.76" y="137.821" width="26.045" height="7.95819" fill="#1C2D35"/>
</svg>
