<svg width="202" height="192" viewBox="0 0 202 192" fill="none" xmlns="http://www.w3.org/2000/svg">
<rect x="2.4389" y="1.99146" width="85.6488" height="93.5639" rx="24.5" stroke="#386CB9" stroke-width="3"/>
<rect x="16.6603" y="18.5603" width="15.4799" height="15.4799" rx="3.78137" stroke="#F1A300" stroke-width="4.0038"/>
<rect x="16.6603" y="42.7388" width="15.4799" height="15.4799" rx="3.78137" stroke="#F1A300" stroke-width="4.0038"/>
<rect x="16.6603" y="66.9174" width="15.4799" height="15.4799" rx="3.78137" stroke="#F1A300" stroke-width="4.0038"/>
<rect x="39.9866" y="16.5583" width="40.8454" height="7.27705" rx="3.63853" fill="#386CB9"/>
<rect x="39.9866" y="40.7369" width="40.8454" height="7.27705" rx="3.63853" fill="#386CB9"/>
<rect x="39.9866" y="64.9155" width="40.8454" height="7.27705" rx="3.63853" fill="#386CB9"/>
<rect x="39.9866" y="26.1829" width="25.3523" height="7.27705" rx="3.63853" fill="#386CB9"/>
<rect x="39.9866" y="50.3615" width="25.3523" height="7.27705" rx="3.63853" fill="#386CB9"/>
<rect x="39.9866" y="74.54" width="25.3523" height="7.27705" rx="3.63853" fill="#386CB9"/>
<path fill-rule="evenodd" clip-rule="evenodd" d="M40.1955 18.2183C41.1122 17.3015 41.1122 15.8152 40.1955 14.8985C39.2787 13.9818 37.7924 13.9818 36.8757 14.8985L24.0862 27.688L18.9005 22.5022C17.9837 21.5855 16.4974 21.5855 15.5807 22.5022C14.6639 23.419 14.6639 24.9053 15.5807 25.822L22.2867 32.528C22.3289 32.5779 22.3735 32.6264 22.4205 32.6734C23.3372 33.5902 24.8236 33.5902 25.7403 32.6734L40.1955 18.2183Z" fill="#386CB9"/>
<path fill-rule="evenodd" clip-rule="evenodd" d="M40.1955 42.3969C41.1122 41.4801 41.1122 39.9938 40.1955 39.0771C39.2787 38.1603 37.7924 38.1603 36.8757 39.0771L24.0863 51.8665L18.9005 46.6807C17.9837 45.764 16.4974 45.764 15.5807 46.6807C14.6639 47.5974 14.6639 49.0837 15.5807 50.0005L22.2859 56.7057C22.3284 56.7559 22.3732 56.8047 22.4205 56.852C23.3372 57.7688 24.8236 57.7688 25.7403 56.852L40.1955 42.3969Z" fill="#386CB9"/>
<path fill-rule="evenodd" clip-rule="evenodd" d="M40.1955 66.5753C41.1122 65.6586 41.1122 64.1723 40.1955 63.2555C39.2787 62.3388 37.7924 62.3388 36.8757 63.2555L24.0863 76.045L18.9005 70.8592C17.9837 69.9424 16.4974 69.9424 15.5807 70.8592C14.6639 71.7759 14.6639 73.2622 15.5807 74.1789L22.2859 80.8842C22.3284 80.9344 22.3732 80.9832 22.4205 81.0305C23.3372 81.9472 24.8236 81.9472 25.7403 81.0305L40.1955 66.5753Z" fill="#386CB9"/>
<path d="M94.1522 87.1691L95.181 69.8509L128.274 62.8208L123.13 87.512C125.188 96.5997 101.068 91.4557 94.1522 87.1691Z" fill="#ED967A"/>
<path d="M94.6666 78.5957L95.181 70.1092C96.2727 71.6372 117.584 66.1155 128.103 63.1637C123.872 71.2205 105.126 82.1965 94.6666 78.5957Z" fill="#BF5755"/>
<path d="M87.6365 45.8456L90.5514 31.6139C99.4677 6.23682 123.473 14.4672 129.817 21.1544C134.595 26.1905 135.361 37.6724 134.275 42.4163C132.561 47.9032 128.926 59.6658 128.103 62.8208C127.28 65.9758 117.243 70.1939 112.328 71.9085C107.927 73.6232 97.8559 75.2007 92.7805 67.7933C87.7051 60.386 87.2364 50.0751 87.6365 45.8456Z" fill="#EF9673"/>
<path d="M139.305 48.4448C138.082 44.3662 132.885 47.4164 130.846 50.4753L127.579 62.7197C132.168 69.3474 140.835 53.543 139.305 48.4448Z" fill="#ED967A"/>
<circle cx="114.702" cy="45.2537" r="2.41692" fill="#1C2D35"/>
<circle cx="96.3481" cy="42.1948" r="2.41692" fill="#1C2D35"/>
<path d="M122.101 40.5302C118.5 35.5577 113.185 36.415 112.499 37.1009C111.985 37.6153 111.985 38.987 113.699 38.6441C116.837 38.0166 120.615 39.4443 122.101 40.5302Z" fill="#1C2D35"/>
<path d="M119.315 45.3117C117.148 42.3197 113.949 42.8355 113.537 43.2482C113.227 43.5578 113.227 44.3831 114.259 44.1768C116.147 43.7992 118.42 44.6583 119.315 45.3117Z" fill="#1C2D35"/>
<path d="M92.4375 40.217C95.7765 38.6365 98.3322 40.6276 98.4954 41.188C98.6178 41.6082 98.2206 42.3318 97.4155 41.6545C95.9422 40.4152 93.5358 40.0744 92.4375 40.217Z" fill="#1C2D35"/>
<path d="M91.7517 36.3866C96.7688 32.8482 101.52 35.3809 101.947 36.2519C102.267 36.9052 101.823 38.2029 100.312 37.3232C97.5466 35.7135 93.5093 35.8404 91.7517 36.3866Z" fill="#1C2D35"/>
<path d="M130.332 56.991C132.561 52.3614 137.225 44.7825 138.048 51.504C137.649 49.4529 136.682 47.5722 132.26 55.0335C132.882 54.043 134.821 53.3719 135.759 54.5778C135.302 54.4634 134.104 52.7043 131.189 56.8195C130.703 57.5054 129.817 59.0486 129.131 60.5918L130.332 56.991Z" fill="#BF5755"/>
<path d="M98.6104 51.847L103.24 42.2449L101.525 50.4753L104.44 51.3326L103.583 52.8758L103.068 53.5617L102.897 52.7043L98.6104 51.847Z" fill="#1C2D35"/>
<path d="M130.16 44.131L127.931 36.072L123.13 31.0995L114.557 23.212L107.012 23.8979C104.132 21.7031 95.7525 26.6414 91.7516 29.2134L89.0082 39.3299C88.0365 34.7575 85.7503 24.5838 85.7503 21.1544C85.7503 16.8678 93.1234 9.83765 97.0671 5.55098C100.222 2.12165 116.329 4.12209 123.987 5.55098L128.617 9.83765L130.846 8.29445C134.104 9.95196 140.997 13.9528 142.506 16.6963C144.015 19.4398 146.335 32.8142 147.307 39.1584C144.621 43.045 139.248 50.4409 139.248 48.932C139.248 47.4231 137.19 45.5027 133.589 48.0747L126.388 57.8483L130.16 44.131Z" fill="#1C2D35"/>
<path d="M108.384 57.7964L100.668 56.4247C100.668 62.2545 102.459 62.3285 104.612 62.5975C107.355 62.9404 108.041 59.6254 108.384 57.7964Z" fill="#E27DA4"/>
<path d="M103.307 58.536C102.165 59.1068 101.182 60.5399 101.182 60.5399C100.771 59.7168 100.668 57.4535 100.668 56.4247L108.384 57.7964C108.384 57.7964 105.418 57.4806 103.307 58.536Z" fill="#1C2D35"/>
<path d="M123.302 87.3406C111.23 95.8453 99.1247 89.5696 94.1522 85.283C37.2253 95.7424 41.5119 106.716 36.3679 115.29C32.2527 122.148 29.7379 141.467 24.0223 157.47H64.8314L57.8013 180.275C57.8013 180.275 69.5362 191.508 103.307 191.508C137.078 191.508 149.193 180.275 149.193 180.275L146.964 157.47H174.056V128.15C174.056 114.432 165.139 104.259 160.681 100.886L123.302 87.3406Z" fill="#FFDF01"/>
<path d="M140.244 139.533L146.312 147.184V152.461L140.244 139.533Z" fill="#F1A300"/>
<path d="M57.9274 135.048L63.9957 142.699V147.976L57.9274 135.048Z" fill="#F1A300"/>
<rect x="111.099" y="93.6848" width="26.0629" height="8.91626" rx="2.5996" transform="rotate(18.89 111.099 93.6848)" fill="#1C2D35"/>
<rect x="95.3615" y="91.9702" width="56.2248" height="78.9539" rx="14.3582" transform="rotate(18.887 95.3615 91.9702)" fill="#386CB9"/>
<mask id="mask0_35_2339" style="mask-type:alpha" maskUnits="userSpaceOnUse" x="24" y="85" width="151" height="107">
<path d="M123.302 87.3406C111.23 95.8453 99.1247 89.5696 94.1522 85.283C37.2253 95.7424 41.5119 106.716 36.3679 115.29C32.2527 122.148 29.7379 141.467 24.0223 157.47H64.8314L57.8013 180.275C57.8013 180.275 69.5362 191.508 103.307 191.508C137.078 191.508 149.193 180.275 149.193 180.275L146.964 157.47H174.056V128.15C174.056 114.432 165.139 104.259 160.681 100.886L123.302 87.3406Z" fill="#FFDF01"/>
</mask>
<g mask="url(#mask0_35_2339)">
<path d="M64.7871 135.048V184.649H57.3997L64.7871 135.048Z" fill="#F1A300"/>
<path d="M147.28 135.048L149.215 187.287H141.827L147.28 135.048Z" fill="#F1A300"/>
</g>
<path d="M23.6794 183.19C20.0786 174.274 26.4229 157.47 26.4229 157.47H62.2594L61.5735 165.529C61.5735 165.529 29.7932 198.329 23.6794 183.19Z" fill="#BF5755"/>
<path d="M76.5304 131.853L85.8736 120.029L82.9927 129.886L99.5698 120.333C104.615 117.237 109.6 119.032 105.751 124.267C105.751 124.267 110.809 120.708 112.775 122.019C114.742 123.33 116.046 126.126 108.403 130.396C108.403 130.396 111.593 129.2 113.388 129.2C115.182 129.2 116.912 132.658 112.192 135.58C109.957 136.963 108.243 137.978 106.987 138.683C112.143 136.746 115.613 139.298 109.799 143.755C103.056 148.925 90.3542 155.322 84.0792 156.914L75.7053 157.911L72.3159 160.512C72.3159 160.512 68.7271 155.717 69.5246 144.951C70.3221 134.185 76.5304 131.853 76.5304 131.853Z" fill="#EF9673"/>
<mask id="mask1_35_2339" style="mask-type:alpha" maskUnits="userSpaceOnUse" x="69" y="118" width="47" height="43">
<path d="M76.5304 131.853L85.8736 120.029L82.9927 129.886L99.5698 120.333C104.615 117.237 109.6 119.032 105.751 124.267C105.751 124.267 110.809 120.708 112.775 122.019C114.742 123.33 116.046 126.126 108.403 130.396C108.403 130.396 111.593 129.2 113.388 129.2C115.182 129.2 116.912 132.658 112.192 135.58C109.957 136.963 108.243 137.978 106.987 138.683C112.143 136.746 115.613 139.298 109.799 143.755C103.056 148.925 90.3542 155.322 84.0792 156.914L75.7053 157.911L72.3159 160.512C72.3159 160.512 68.7271 155.717 69.5246 144.951C70.3221 134.185 76.5304 131.853 76.5304 131.853Z" fill="#EF9673"/>
</mask>
<g mask="url(#mask1_35_2339)">
<path d="M92.0383 131.393L106.792 123.019L105.812 124.216L92.0383 131.393Z" fill="#BF5755"/>
<path d="M94.6463 137.374L112.79 127.406L110.397 129.399L94.6463 137.374Z" fill="#BF5755"/>
<path d="M97.4376 143.555L111.594 135.979L107.407 138.77L97.4376 143.555Z" fill="#BF5755"/>
</g>
<path d="M30.4464 160.104C33.3706 152.727 72.5153 136.178 72.5153 136.178C68.5277 140.006 70.455 153.79 72.1165 160.104C63.7426 183.83 35.2315 191.007 28.4526 186.621C23.0295 183.112 27.5222 167.481 30.4464 160.104Z" fill="#EF9673"/>
<path d="M145.764 170.33C142.406 163.14 155.978 118.033 155.978 118.033C159.995 92.9989 172.169 120.776 174.913 123.52C178.685 161.757 170.26 182.781 162.418 184.7C156.143 186.236 149.121 177.52 145.764 170.33Z" fill="#EF9673"/>
<path d="M145.421 162.614C145.832 154.11 153.937 124.777 157.938 111.174C154.451 127.635 147.307 160.968 146.621 162.614C145.935 164.26 145.535 163.3 145.421 162.614Z" fill="#EF9673"/>
<path d="M168.054 59.0487L165.311 83.054C165.311 83.054 165.214 79.8032 163.768 78.7673C161.528 77.1632 159.476 80.0162 157.423 81.8537C151.835 86.8554 157.423 101.058 157.423 101.058L157.938 111.689L174.742 124.035C176.399 122.606 184.378 111.209 187.944 105.173C191.511 99.1376 185.773 90.0841 182.458 86.3119L173.541 80.1391V63.3353C173.541 55.7908 169.883 57.334 168.054 59.0487Z" fill="#EF9673"/>
<path d="M168.226 91.2843C169.049 89.9126 178.685 86.0831 180.743 85.283L175.427 88.5408C173.656 89.3982 169.94 91.25 169.255 91.7987C168.397 92.4846 167.711 98.3144 167.54 99.3432C167.403 100.166 166.454 100.486 165.997 100.543C162.019 101.641 162.053 97.2285 162.567 94.8851C162.156 99.549 164.796 99.9148 166.168 99.5147C166.511 97.3428 167.403 92.656 168.226 91.2843Z" fill="#BF5755"/>
<path d="M173.44 96.0855C174.263 94.7137 182.8 90.5414 184.858 89.7412L180.743 92.6561C178.971 93.5135 175.155 96.0512 174.469 96.5999C173.612 97.2857 172.926 103.116 172.755 104.144C172.617 104.967 171.669 105.288 171.211 105.345C167.233 106.442 167.268 102.03 167.782 99.6863C167.371 104.35 170.011 104.716 171.383 104.316C171.726 102.144 172.617 97.4572 173.44 96.0855Z" fill="#BF5755"/>
<path d="M178.598 98.0168C179.327 96.8014 181.772 96.9426 182.286 98.4725L181.772 100.029C181.257 99.5014 180.117 97.9864 179.509 98.4726C178.75 99.0803 178.142 104.246 177.99 105.157C177.869 105.886 177.028 106.17 176.623 106.221C173.098 107.193 173.129 103.283 173.584 101.207C173.22 105.339 175.559 105.664 176.775 105.309C177.079 103.385 177.869 99.2322 178.598 98.0168Z" fill="#BF5755"/>
<path d="M52.3144 145.468C40.929 150.543 33.0529 156.956 30.5381 159.528L27.1088 165.358C35.8879 156.442 47.5705 148.383 52.3144 145.468Z" fill="#BF5755"/>
<path d="M160.167 84.597L158.624 86.4832L160.167 93.5133V88.5408L161.024 89.9125C162.053 90.7698 163.253 90.5298 164.625 90.2554C165.997 89.9811 165.882 87.3977 165.654 86.1402C165.654 88.5408 164.454 89.5696 162.224 89.2266C160.441 88.9523 160.11 86.0259 160.167 84.597Z" fill="#BF5755"/>
<path d="M171.655 82.7109L173.541 67.7933V79.9675V82.0251L166.854 86.4832L171.655 82.7109Z" fill="#BF5755"/>
<circle cx="27.3225" cy="118.162" r="3.24904" stroke="#386CB9" stroke-width="3"/>
<circle cx="23.7607" cy="105.102" r="4.4363" stroke="#386CB9" stroke-width="3"/>
<circle cx="171.113" cy="35.5816" r="10.2896" fill="#FFDF01"/>
<rect x="166.1" y="46.9265" width="9.49809" height="1.80916" rx="0.90458" fill="#FFDF01"/>
<rect x="166.1" y="49.188" width="9.49809" height="1.80916" rx="0.90458" fill="#FFDF01"/>
<path fill-rule="evenodd" clip-rule="evenodd" d="M168.211 51.6755C168.455 52.8798 169.52 53.7862 170.796 53.7862C172.073 53.7862 173.138 52.8798 173.382 51.6755H168.211Z" fill="#FFDF01"/>
</svg>
