<svg width="252" height="251" viewBox="0 0 252 251" fill="none" xmlns="http://www.w3.org/2000/svg">
<path d="M101.453 196.232C95.2279 187.447 91.9649 176.855 85.5895 168.22C76.1519 155.52 60.9915 148.341 48.7427 138.201C34.4357 126.353 23.7431 109.085 23.8435 90.7114C23.9439 72.3382 37.1465 53.7642 55.6201 50.7522C67.8689 48.7944 80.1177 53.4128 92.5171 54.0654C104.013 54.6176 115.308 51.706 126.402 48.8446C137.496 45.9832 148.841 43.1218 160.287 43.7242C171.733 44.3266 183.58 49.1458 189.805 58.6336C197.586 70.4306 194.975 85.9424 199.092 99.396C203.057 112.448 213.047 122.739 221.581 133.532C230.115 144.325 237.746 157.377 235.587 170.831C233.579 183.581 222.736 193.872 210.336 198.139C202.003 201.001 192.766 201.553 184.935 205.72C177.706 209.535 174.042 216.764 167.917 221.834C155.869 231.723 136.793 222.085 125.047 215.96C115.91 211.141 107.426 204.716 101.453 196.232Z" fill="white"/>
<path d="M155.167 226.402C144.374 226.402 132.376 220.177 124.896 216.262C114.605 210.89 106.624 204.264 101.102 196.483C98.0897 192.216 95.7303 187.497 93.4713 182.879C91.0617 177.959 88.5517 172.889 85.2385 168.471C79.1141 160.188 70.3291 154.164 61.8453 148.341C57.3273 145.229 52.7089 142.066 48.4419 138.552C32.4281 125.249 23.2917 107.88 23.4423 90.8118C23.5929 81.324 26.8057 72.1876 32.5787 64.758C38.6027 56.9268 46.7853 51.8566 55.5703 50.4008C63.2007 49.1458 70.9817 50.5012 78.5117 51.8064C83.1301 52.6096 87.8489 53.4128 92.5677 53.6638C104.013 54.216 115.358 51.3044 126.352 48.443C136.794 45.7322 148.641 42.67 160.388 43.3226C173.339 44.0756 184.484 49.698 190.207 58.3826C194.976 65.6114 195.879 74.4466 196.783 82.9304C197.335 88.4022 197.937 94.0246 199.544 99.2454C202.757 109.838 210.086 118.723 217.164 127.357C218.77 129.315 220.377 131.273 221.983 133.281C233.379 147.688 237.846 159.636 236.089 170.881C234.182 182.979 224.142 193.822 210.588 198.491C207.275 199.545 203.911 200.449 200.498 201.151C195.327 202.306 189.956 203.511 185.237 206.071C180.97 208.33 178.008 211.744 174.896 215.308C172.888 217.768 170.679 220.027 168.269 222.085C164.404 225.197 159.936 226.402 155.167 226.402ZM61.9457 50.6518C59.8373 50.6518 57.7289 50.8024 55.6707 51.1538C47.0363 52.5594 39.0043 57.5292 33.1309 65.2098C27.5085 72.539 24.3459 81.4746 24.1953 90.7114C24.0447 107.328 33.3317 124.948 48.9439 137.899C53.1607 141.413 57.7791 144.576 62.2469 147.688C70.7809 153.562 79.6161 159.636 85.8409 168.019C89.2043 172.537 91.7143 177.608 94.1741 182.577C96.4331 187.146 98.7925 191.864 101.754 196.081C107.176 203.762 115.107 210.338 125.248 215.659C132.677 219.525 144.575 225.699 155.167 225.699C159.735 225.699 164.052 224.545 167.717 221.533C170.076 219.474 172.235 217.215 174.243 214.806C177.255 211.292 180.418 207.677 184.785 205.368C189.604 202.808 195.026 201.603 200.247 200.398C203.61 199.696 206.973 198.842 210.236 197.738C223.539 193.17 233.379 182.577 235.236 170.73C236.993 159.686 232.525 147.939 221.28 133.733C219.724 131.775 218.068 129.767 216.511 127.809C209.383 119.125 202.004 110.189 198.741 99.4462C197.134 94.1752 196.532 88.5026 195.98 82.9806C195.076 74.1956 194.223 65.8624 189.504 58.7842C183.881 50.3004 172.988 44.7784 160.237 44.0756C148.641 43.3728 136.844 46.435 126.453 49.0956C115.409 51.957 104.013 54.9188 92.4673 54.3164C87.7485 54.0654 82.9795 53.2622 78.3109 52.459C72.9897 51.6558 67.4677 50.6518 61.9457 50.6518Z" fill="#111111"/>
<path d="M94.9764 41.4652C91.7636 41.2142 87.9986 40.0596 87.095 37.0476C86.1914 34.0356 88.9022 30.9734 91.7134 29.2666C96.7836 26.1542 102.657 24.6984 108.581 24.9996C114.454 25.351 122.185 29.5678 117.014 35.8428C112.446 41.3648 101.603 42.0174 94.9764 41.4652Z" fill="white"/>
<path d="M98.892 42.0174C97.5366 42.0174 96.2314 41.9672 94.9262 41.8668C92.8178 41.666 87.848 40.913 86.6934 37.148C85.7396 33.8348 88.5508 30.7726 91.4624 28.9654C96.5828 25.8028 102.557 24.2968 108.581 24.598C112.546 24.849 117.265 26.7064 118.671 29.9192C119.223 31.2244 119.474 33.383 117.265 35.9934C113.701 40.4612 105.97 42.0174 98.892 42.0174ZM106.974 25.351C101.653 25.351 96.4322 26.8068 91.9142 29.618C89.2034 31.2746 86.6432 34.0858 87.4464 36.9472C88.4002 40.2604 93.0186 40.9632 94.9764 41.1138C102.757 41.7162 112.597 40.6118 116.713 35.5918C118.269 33.6842 118.721 31.9272 117.968 30.2706C116.713 27.359 112.145 25.602 108.53 25.4012C108.028 25.351 107.526 25.351 106.974 25.351Z" fill="#111111"/>
<path d="M55.9215 157.176C61.4435 161.544 67.1663 165.76 72.1361 170.78C77.1059 175.8 81.3729 181.724 83.2805 188.501C85.1881 195.278 84.5857 202.959 80.5697 208.732C76.5537 214.505 68.7727 217.868 62.0459 215.76C54.4155 213.4 50.1987 205.619 45.2791 199.394C39.8073 192.567 32.7291 187.095 27.2573 180.268C18.4221 168.973 14.5065 154.566 16.5145 140.359C16.8659 137.799 17.4683 135.189 19.1751 133.231C25.1489 126.102 31.7251 135.791 35.7913 139.656C42.2169 145.781 48.9437 151.604 55.9215 157.176Z" fill="white"/>
<path d="M66.3126 216.764C64.8568 216.764 63.401 216.563 61.9954 216.111C55.8208 214.203 51.855 208.832 48.0398 203.611C47.086 202.306 46.082 200.9 45.0278 199.646C42.3672 196.282 39.2046 193.17 36.1424 190.208C33.03 187.146 29.767 183.983 27.006 180.519C18.0704 169.124 14.1548 154.616 16.1126 140.309C16.464 137.849 17.0664 135.088 18.8234 132.98C20.2792 131.223 21.8856 130.369 23.6426 130.319C27.4076 130.219 30.9718 134.084 33.8332 137.197C34.5862 138 35.3392 138.803 35.9918 139.406C42.4174 145.53 49.1944 151.403 56.122 156.925L59.2344 159.385C63.7022 162.899 68.3206 166.463 72.3868 170.58C78.1096 176.353 81.9248 182.377 83.6316 188.451C85.74 195.83 84.6858 203.511 80.8706 209.033C77.5072 213.852 71.8346 216.764 66.3126 216.764ZM23.7932 131.022H23.6928C22.1868 131.072 20.7812 131.825 19.4258 133.432C17.7692 135.389 17.217 138.05 16.8656 140.41C14.958 154.516 18.7732 168.823 27.5582 180.067C30.269 183.531 33.4818 186.644 36.5942 189.706C39.7066 192.768 42.8692 195.83 45.58 199.244C46.584 200.499 47.6382 201.904 48.592 203.21C52.357 208.33 56.2726 213.601 62.1962 215.458C68.5214 217.416 76.1518 214.505 80.3184 208.581C84.0332 203.26 85.0372 195.78 82.979 188.652C81.2722 182.678 77.5574 176.804 71.8848 171.132C67.8688 167.066 63.2504 163.501 58.8328 160.038L55.7204 157.578C48.7426 152.056 41.9656 146.132 35.54 140.008C34.8874 139.355 34.1344 138.602 33.3814 137.749C30.5702 134.687 27.1566 131.022 23.7932 131.022Z" fill="#111111"/>
<path d="M156.622 75.0992C156.522 67.5692 156.773 59.989 156.371 52.5594C155.969 46.184 147.988 47.188 143.62 46.937C139.604 46.7362 135.237 47.2382 130.869 46.7362C128.309 46.7362 125.398 46.8366 123.54 48.6438C121.432 50.6518 121.382 53.965 121.482 57.0272C121.633 63.4026 121.783 69.8282 121.934 76.304C121.984 78.4626 122.135 80.8722 123.791 82.1774C124.996 83.1312 126.703 83.1814 128.259 83.1814H149.393C151.552 83.1814 153.911 83.0308 155.317 81.2236C156.572 79.6172 156.622 77.2076 156.622 75.0992ZM152.305 78.5128C151.15 80.0188 149.192 80.1192 147.435 80.1192H130.016C128.711 80.1192 127.355 80.069 126.351 79.316C124.996 78.2618 124.845 76.2538 124.795 74.4968C124.695 69.1756 124.544 63.8544 124.444 58.6336C124.394 56.1236 124.444 53.4128 126.151 51.7562C127.707 50.3004 130.066 50.2 132.225 50.2C135.839 50.6016 139.403 50.2 142.717 50.3506C146.281 50.5514 152.857 49.698 153.208 54.969C153.56 61.0432 153.359 67.3182 153.409 73.543C153.359 75.1996 153.359 77.2076 152.305 78.5128Z" fill="#111111"/>
<path d="M129.916 58.2822C129.816 57.3284 129.816 56.3244 130.418 55.471C130.719 55.0192 131.221 54.7682 131.723 54.7682C132.878 54.8184 133.38 56.1236 133.631 57.1778L135.689 65.6114C135.84 66.3644 136.342 66.9668 137.044 67.3182C138.751 68.021 140.006 66.0632 140.609 64.4568C143.57 57.0272 147.436 49.949 152.155 43.4732C152.657 42.8206 153.159 42.168 153.711 41.5656C155.418 39.7082 158.48 41.5154 157.626 43.8748C156.723 46.3346 155.016 48.694 153.41 50.8024C148.289 57.73 143.922 65.1596 140.358 72.9406C140.056 73.5932 139.705 74.1956 139.203 74.7478C133.932 80.7718 130.167 61.4448 129.916 58.2822Z" fill="#128FFF"/>
<path d="M162.797 60.5914C163.6 62.248 165.809 62.499 167.566 62.499L195.778 62.5994C200.296 62.5994 204.864 62.6496 209.282 61.746C210.386 61.5452 211.541 61.1938 212.294 60.3906C213.047 59.5874 213.248 58.1316 212.394 57.2782C211.691 56.5754 210.637 56.5754 209.734 56.5754L186.742 56.977L175.347 57.1778C172.636 57.228 170.628 56.3746 168.017 55.973C165.708 55.6216 161.341 57.479 162.797 60.5914Z" fill="#111111"/>
<path d="M162.797 70.6816C163.6 72.3382 165.809 72.5892 167.566 72.5892L195.778 72.6896C200.296 72.6896 204.864 72.7398 209.282 71.8362C210.386 71.6354 211.541 71.284 212.294 70.4808C213.047 69.6776 213.248 68.2218 212.394 67.3684C211.691 66.6656 210.637 66.6656 209.734 66.6656L186.742 67.0672L175.347 67.268C172.636 67.3182 170.628 66.4648 168.017 66.0632C165.708 65.762 161.341 67.5692 162.797 70.6816Z" fill="#111111"/>
<path d="M156.622 120.58C156.521 113.05 156.772 105.47 156.371 98.0406C156.019 91.6652 147.987 92.6692 143.67 92.4182C139.654 92.2174 135.287 92.7194 130.919 92.2174C128.359 92.2174 125.447 92.3178 123.59 94.125C121.482 96.133 121.431 99.4462 121.532 102.458C121.682 108.834 121.833 115.259 121.984 121.735C122.034 123.894 122.184 126.303 123.841 127.608C125.046 128.562 126.753 128.612 128.309 128.612H149.443C151.602 128.612 153.961 128.462 155.367 126.655C156.571 125.098 156.622 122.739 156.622 120.58ZM152.304 124.044C151.15 125.55 149.192 125.651 147.435 125.651H130.016C128.71 125.651 127.355 125.6 126.351 124.847C124.996 123.793 124.845 121.785 124.795 120.028C124.694 114.707 124.544 109.386 124.443 104.165C124.393 101.705 124.443 98.9442 126.15 97.2876C127.706 95.7816 130.066 95.7314 132.224 95.7314C135.839 96.133 139.403 95.7314 142.716 95.882C146.28 96.0828 152.857 95.2294 153.208 100.5C153.559 106.575 153.359 112.85 153.409 119.024C153.359 120.731 153.359 122.689 152.304 124.044Z" fill="#111111"/>
<path d="M129.916 103.814C129.816 102.86 129.816 101.856 130.418 101.002C130.719 100.551 131.221 100.3 131.723 100.3C132.878 100.35 133.38 101.655 133.631 102.709L135.689 111.143C135.84 111.896 136.342 112.498 137.044 112.85C138.751 113.552 140.006 111.544 140.609 109.988C143.57 102.559 147.436 95.4804 152.155 89.0046C152.657 88.352 153.159 87.6994 153.711 87.097C155.418 85.2396 158.48 87.0468 157.626 89.4062C156.723 91.866 155.016 94.2254 153.41 96.3338C148.289 103.261 143.922 110.691 140.358 118.472C140.056 119.125 139.705 119.727 139.203 120.279C133.932 126.303 130.167 106.976 129.916 103.814Z" fill="#128FFF"/>
<path d="M162.797 106.073C163.6 107.729 165.809 107.98 167.566 107.98L195.778 108.131C200.296 108.131 204.864 108.181 209.282 107.277C210.386 107.077 211.541 106.725 212.294 105.922C213.047 105.119 213.248 103.663 212.394 102.81C211.691 102.107 210.637 102.107 209.734 102.107L186.742 102.508C182.927 102.559 179.162 102.659 175.347 102.709C172.636 102.759 170.628 101.906 168.017 101.504C165.708 101.153 161.341 102.96 162.797 106.073Z" fill="#111111"/>
<path d="M162.797 116.213C163.6 117.87 165.809 118.121 167.566 118.121L195.778 118.271C200.296 118.271 204.864 118.321 209.282 117.418C210.386 117.217 211.541 116.866 212.294 116.062C213.047 115.259 213.248 113.803 212.394 112.95C211.691 112.247 210.637 112.247 209.734 112.247L186.742 112.649C182.927 112.699 179.162 112.799 175.347 112.85C172.636 112.9 170.628 112.046 168.017 111.645C165.708 111.243 161.341 113.101 162.797 116.213Z" fill="#111111"/>
<path d="M156.622 163.501C156.521 155.971 156.772 148.391 156.371 140.962C156.019 134.586 147.987 135.59 143.67 135.339C139.654 135.138 135.287 135.64 130.919 135.138C128.359 135.138 125.447 135.239 123.59 137.046C121.482 139.054 121.431 142.367 121.532 145.379C121.682 151.755 121.833 158.18 121.984 164.656C122.034 166.815 122.184 169.224 123.841 170.529C125.046 171.483 126.753 171.533 128.309 171.533H149.443C151.602 171.533 153.961 171.383 155.367 169.576C156.571 168.019 156.622 165.66 156.622 163.501ZM152.304 166.915C151.15 168.421 149.192 168.521 147.435 168.521H130.016C128.71 168.521 127.355 168.471 126.351 167.718C124.996 166.664 124.845 164.656 124.795 162.899C124.694 157.578 124.544 152.257 124.443 147.036C124.393 144.526 124.443 141.815 126.15 140.158C127.706 138.703 130.066 138.602 132.224 138.602C135.839 139.004 139.403 138.602 142.716 138.753C146.28 138.954 152.857 138.1 153.208 143.371C153.559 149.445 153.359 155.72 153.409 161.945C153.359 163.652 153.359 165.61 152.304 166.915Z" fill="#111111"/>
<path d="M162.797 148.994C163.6 150.65 165.809 150.901 167.566 150.901L195.778 151.002C200.296 151.002 204.864 151.052 209.282 150.148C210.386 149.897 211.541 149.596 212.294 148.793C213.047 147.99 213.248 146.534 212.394 145.68C211.691 144.978 210.637 144.978 209.734 144.978L186.742 145.379C182.927 145.429 179.162 145.53 175.347 145.58C172.636 145.63 170.628 144.777 168.017 144.375C165.708 144.074 161.341 145.881 162.797 148.994Z" fill="#111111"/>
<path d="M162.797 159.084C163.6 160.74 165.809 160.991 167.566 160.991L195.778 161.092C200.296 161.092 204.864 161.142 209.282 160.238C210.386 159.987 211.541 159.686 212.294 158.883C213.047 158.08 213.248 156.624 212.394 155.771C211.691 155.068 210.637 155.068 209.734 155.068L186.742 155.469L175.347 155.67C172.636 155.72 170.628 154.867 168.017 154.465C165.708 154.164 161.341 155.971 162.797 159.084Z" fill="#111111"/>
<path d="M156.622 205.619C156.521 198.089 156.772 190.509 156.371 183.079C156.019 176.704 147.987 177.708 143.67 177.457C139.654 177.256 135.287 177.758 130.919 177.256C128.359 177.256 125.447 177.357 123.59 179.164C121.482 181.172 121.431 184.485 121.532 187.497C121.682 193.872 121.833 200.298 121.984 206.774C122.034 208.932 122.184 211.342 123.841 212.647C125.046 213.601 126.753 213.651 128.309 213.651H149.443C151.602 213.651 153.961 213.501 155.367 211.693C156.571 210.137 156.622 207.778 156.622 205.619ZM152.304 209.083C151.15 210.589 149.192 210.689 147.435 210.689H130.016C128.71 210.689 127.355 210.639 126.351 209.886C124.996 208.832 124.845 206.824 124.795 205.067C124.694 199.746 124.544 194.425 124.443 189.204C124.393 186.744 124.443 183.983 126.15 182.326C127.706 180.871 130.066 180.77 132.224 180.77C135.839 181.172 139.403 180.77 142.716 180.921C146.28 181.122 152.857 180.268 153.208 185.539C153.559 191.613 153.359 197.888 153.409 204.113C153.359 205.77 153.359 207.728 152.304 209.083Z" fill="#111111"/>
<path d="M162.797 191.111C163.6 192.768 165.809 193.019 167.566 193.019L195.778 193.119C200.296 193.119 204.864 193.17 209.282 192.266C210.386 192.065 211.541 191.714 212.294 190.911C213.047 190.107 213.248 188.652 212.394 187.798C211.691 187.095 210.637 187.095 209.734 187.095L186.742 187.497C182.927 187.547 179.162 187.648 175.347 187.698C172.636 187.748 170.628 186.895 168.017 186.493C165.708 186.192 161.341 187.999 162.797 191.111Z" fill="#111111"/>
<path d="M162.797 201.252C163.6 202.908 165.809 203.159 167.566 203.159L195.778 203.31C200.296 203.31 204.864 203.36 209.282 202.457C210.386 202.256 211.541 201.904 212.294 201.101C213.047 200.298 213.248 198.842 212.394 197.989C211.691 197.286 210.637 197.286 209.734 197.286L186.742 197.688L175.347 197.888C172.636 197.939 170.628 197.085 168.017 196.684C165.708 196.282 161.341 198.139 162.797 201.252Z" fill="#111111"/>
<path d="M33.7825 161.192C31.7243 165.158 28.6621 168.521 24.8971 170.981C22.9393 172.236 20.4795 173.943 21.0819 176.152C21.4333 177.557 22.8891 178.31 24.1943 178.863C33.1801 182.377 43.5715 180.971 52.1055 176.453C60.6395 171.935 67.3663 164.656 72.5871 156.574C75.0971 152.708 77.3059 147.638 74.8461 143.723C72.2357 139.556 66.1615 139.355 61.7941 138.753C57.7279 138.201 52.8083 136.594 48.7421 137.297C44.5253 138 41.4631 142.166 39.6057 145.731C38.7021 147.588 35.4893 160.941 33.7825 161.192Z" fill="#128FFF"/>
<path d="M56.8244 154.415C58.3304 150.349 60.5392 145.831 65.2078 144.476C68.2198 143.572 71.6334 144.275 74.3442 145.731C77.055 147.186 79.2638 149.245 81.3722 151.303C85.087 154.867 88.852 158.481 91.5126 162.648C94.1732 166.815 95.8298 171.734 94.876 176.503C94.123 180.369 91.7636 183.883 89.4042 187.246C82.0248 197.838 74.3944 208.28 65.8102 218.169C64.0532 220.177 61.7942 222.386 58.8826 222.336C56.5734 222.286 54.6658 220.78 53.1598 219.274C44.5756 210.338 45.8306 201.302 47.437 190.71C49.2944 178.31 52.457 166.162 56.8244 154.415Z" fill="white"/>
<path d="M58.983 222.637H58.8324C56.8244 222.587 54.9168 221.533 52.8586 219.424C44.0736 210.338 45.429 201.202 47.0354 190.609C48.943 178.21 52.0554 166.011 56.473 154.265C58.0292 149.998 60.2882 145.48 65.1074 144.074C67.9186 143.221 71.3824 143.723 74.4948 145.379C77.306 146.835 79.4646 148.943 81.6232 151.002C85.2878 154.516 89.103 158.18 91.864 162.447C94.0226 165.811 96.382 170.981 95.2776 176.553C94.4744 180.62 91.9644 184.234 89.7054 187.447C83.1292 196.884 75.1474 207.979 66.1114 218.42C64.254 220.478 61.9448 222.637 58.983 222.637ZM57.1758 154.516C52.8084 166.262 49.696 178.361 47.7884 190.76C46.2322 201.151 44.8768 210.137 53.4108 218.972C55.3184 220.93 57.0754 221.884 58.8324 221.934C61.5432 221.984 63.7018 219.926 65.4588 217.918C74.4948 207.477 82.4264 196.433 89.0026 186.995C91.2114 183.883 93.6712 180.318 94.4242 176.403C95.4784 171.082 93.2194 166.112 91.111 162.849C88.4002 158.682 84.6352 155.068 81.0208 151.554C78.9124 149.546 76.7538 147.488 74.0932 146.082C71.1314 144.526 67.9186 144.074 65.258 144.877C60.8404 146.132 58.6818 150.449 57.1758 154.516Z" fill="#111111"/>
<path d="M61.2923 143.421C64.4549 141.915 68.9729 141.213 70.9307 144.124C72.1355 145.931 71.6837 148.492 70.4789 150.299C69.2741 152.106 67.3665 153.361 65.5091 154.616C51.5535 164.154 42.7685 171.483 32.6281 184.987C31.0719 187.045 30.2185 189.405 29.3149 191.814C27.2065 197.537 40.9111 205.92 46.2323 204.565C44.9773 207.677 41.3629 213.25 40.1581 216.362C34.3349 214.404 28.5117 211.995 23.9937 207.878C19.4757 203.762 16.3633 197.637 17.1665 191.563C17.9195 185.84 21.8853 181.122 25.6503 176.754C36.1923 164.556 46.3327 150.449 61.2923 143.421Z" fill="white"/>
<path d="M40.1581 216.713C40.1079 216.713 40.0577 216.713 40.0577 216.713C34.6863 214.956 28.5619 212.497 23.7427 208.129C18.7227 203.561 16.0119 197.186 16.7649 191.513C17.5681 185.489 21.8853 180.519 25.3491 176.503C27.0057 174.596 28.7125 172.537 30.3691 170.58C39.2545 159.987 48.4913 149.044 61.1417 143.07C64.5051 141.514 69.1235 140.761 71.2319 143.923C72.6375 145.982 71.9849 148.743 70.7299 150.55C69.4749 152.357 67.6677 153.612 65.9107 154.817L65.7099 154.967C52.0053 164.305 43.1701 171.533 32.9293 185.238C31.4233 187.246 30.5197 189.656 29.6663 191.965C28.9635 193.923 30.3691 196.031 31.6743 197.487C35.4393 201.704 42.7685 205.067 46.1319 204.214C46.2825 204.163 46.4331 204.214 46.5335 204.314C46.6339 204.414 46.6339 204.565 46.5837 204.716C45.6801 206.774 44.6259 208.732 43.5215 210.639C42.4171 212.547 41.4131 214.505 40.5095 216.462C40.4593 216.613 40.3087 216.713 40.1581 216.713ZM61.4429 143.773C48.9431 149.646 39.8067 160.54 30.9213 171.082C29.2647 173.039 27.5579 175.047 25.9013 177.005C22.4877 180.921 18.2709 185.79 17.5179 191.613C16.8151 197.035 19.3753 203.159 24.2447 207.577C28.8631 211.744 34.7365 214.103 39.9071 215.86C40.5597 214.304 41.7143 212.246 42.8187 210.238C43.8729 208.38 44.9271 206.473 45.5797 205.017C41.7143 205.418 34.8369 202.105 31.0719 197.939C29.0137 195.629 28.2607 193.471 28.9635 191.664C29.8169 189.304 30.7205 186.844 32.3269 184.736C42.6179 170.981 51.5033 163.702 65.2581 154.315L65.5091 154.164C67.2159 153.01 68.9729 151.805 70.1275 150.098C71.2319 148.492 71.7841 146.082 70.5793 144.325C68.9227 141.765 64.8063 142.166 61.4429 143.773Z" fill="#111111"/>
<path d="M89.4541 152.206C90.9099 152.959 92.2653 153.913 93.4199 155.118L109.434 169.626C110.388 170.63 111.542 171.383 112.847 171.935C114.303 172.487 116.412 172.638 117.767 171.985C118.62 171.584 119.223 170.78 119.424 169.877C120.227 167.166 120.076 164.254 119.022 161.594L129.012 161.293C128.209 163.903 128.811 166.614 129.213 169.274C129.614 171.935 129.815 174.696 128.409 177.206C127.004 179.716 123.54 182.025 119.022 182.477C112.898 183.029 107.576 180.168 103.711 177.357C96.6829 172.186 91.0103 166.463 85.6891 160.69C84.0827 158.933 79.7655 155.771 80.1169 153.662C80.5185 150.801 86.4923 150.751 89.4541 152.206Z" fill="white"/>
<path d="M117.416 182.879C112.898 182.879 108.229 181.122 103.41 177.608C96.0305 172.186 90.1069 166.112 85.3379 160.841C84.9363 160.389 84.3339 159.887 83.7315 159.285C81.6733 157.377 79.3641 155.269 79.6653 153.512C79.8159 152.658 80.4183 151.955 81.2215 151.604C83.4303 150.449 87.4463 150.801 89.6551 151.855C91.1611 152.608 92.5165 153.612 93.7213 154.817L109.735 169.325C110.689 170.278 111.793 171.031 113.048 171.584C114.354 172.086 116.362 172.286 117.667 171.634C118.42 171.282 118.922 170.58 119.123 169.726C119.926 167.066 119.775 164.254 118.721 161.694C118.671 161.594 118.671 161.443 118.771 161.343C118.821 161.242 118.972 161.192 119.072 161.192L129.062 160.891C129.163 160.891 129.313 160.941 129.363 161.042C129.414 161.142 129.464 161.242 129.414 161.393C128.711 163.652 129.112 166.062 129.464 168.371C129.514 168.672 129.564 168.923 129.614 169.224C130.016 171.784 130.317 174.696 128.761 177.407C127.104 180.318 123.289 182.427 119.072 182.828C118.52 182.828 117.968 182.879 117.416 182.879ZM84.7857 151.654C83.6813 151.604 82.5769 151.805 81.5729 152.257C80.9705 152.508 80.5689 153.01 80.4183 153.612C80.1673 154.967 82.5267 157.126 84.2335 158.732C84.8861 159.335 85.4885 159.887 85.8901 160.339C90.6591 165.56 96.4823 171.634 103.862 177.005C109.083 180.82 114.153 182.527 118.922 182.075C122.938 181.674 126.502 179.716 128.008 177.005C129.414 174.545 129.163 171.835 128.761 169.325C128.711 169.074 128.661 168.772 128.61 168.471C128.259 166.212 127.908 163.953 128.41 161.644L119.424 161.895C120.327 164.505 120.428 167.317 119.625 169.927C119.424 170.931 118.721 171.835 117.767 172.286C116.211 173.039 114.002 172.788 112.546 172.236C111.241 171.684 110.036 170.881 109.032 169.877L93.0185 155.369C91.8639 154.214 90.5587 153.261 89.1531 152.558C87.8981 151.955 86.3921 151.654 84.7857 151.654Z" fill="#111111"/>
<path d="M57.8787 139.054C57.2763 142.518 58.4309 146.082 60.9409 148.592C63.8525 151.403 68.0693 152.357 72.0853 152.909C76.8543 153.562 81.9747 153.763 86.2417 151.504C90.5087 149.245 93.3199 143.723 91.1111 139.456C89.2537 135.841 84.8361 134.536 80.8703 133.632C72.9889 131.725 59.6859 126.303 57.8787 139.054Z" fill="#128FFF"/>
<path d="M64.3047 62.2982C56.8249 61.4448 48.7427 64.5572 44.5259 70.8322C40.6605 76.6052 40.4095 83.9846 38.2007 90.5608C36.2931 96.1832 32.9297 101.806 34.0843 107.629C35.0381 112.147 38.6023 115.611 42.0661 118.673C52.3069 127.608 63.7023 135.189 75.9009 141.213C78.9129 142.668 82.0253 144.074 85.3887 144.124C88.7521 144.174 92.3163 142.618 93.6717 139.556C95.0773 136.393 93.8223 132.779 92.6175 129.516C86.7943 113.301 83.6819 96.2334 83.4309 79.0148C83.3305 73.794 82.3265 71.786 78.1599 68.4226C74.2443 65.1094 69.4251 63.001 64.3047 62.2982Z" fill="#128FFF"/>
<path d="M93.0189 128.412C93.0691 130.57 93.0189 132.729 92.2659 134.787C91.5129 136.845 89.9567 138.652 87.8985 139.154C85.3885 139.757 82.8785 138.351 80.7701 136.895C66.6639 126.855 58.7825 110.44 51.6541 94.627C50.8509 92.9202 50.0979 91.0628 50.3489 89.2053C50.8007 85.7917 54.4151 83.8339 57.6781 82.7797C65.4089 80.3199 77.3063 78.8139 84.9869 82.5287C88.5009 84.2355 88.4005 91.364 89.1033 95.1792C90.0571 100.3 90.9607 105.47 91.6635 110.691C92.4165 116.464 92.9185 122.438 93.0189 128.412Z" fill="white"/>
<path d="M86.643 139.606C84.384 139.606 82.2254 138.301 80.5688 137.096C66.8642 127.357 59.2338 112.147 51.3524 94.6772C50.6496 93.0708 49.746 91.113 49.997 89.0548C50.499 85.34 54.4146 83.332 57.5772 82.328C66.0108 79.6172 77.8078 78.5128 85.137 82.077C88.0486 83.5328 88.6008 88.2516 89.0526 92.0668C89.153 93.121 89.3036 94.1752 89.4542 94.9784C90.6088 101.002 91.412 105.922 92.0144 110.49C92.8176 116.414 93.2694 122.388 93.3698 128.361C93.42 130.52 93.3698 132.779 92.6168 134.837C91.7634 137.197 89.9562 138.954 87.9482 139.405C87.4964 139.556 87.0948 139.606 86.643 139.606ZM73.2898 80.571C68.0188 80.6212 62.798 81.4746 57.778 83.0308C54.8162 83.9846 51.1516 85.842 50.6998 89.1552C50.4488 90.9624 51.3022 92.87 52.005 94.376C59.8864 111.745 67.4666 126.855 80.9704 136.494C82.878 137.849 85.3378 139.305 87.7976 138.703C89.5546 138.251 91.161 136.695 91.914 134.586C92.6168 132.628 92.667 130.42 92.6168 128.361C92.5164 122.438 92.0646 116.514 91.2614 110.591C90.659 106.022 89.8558 101.103 88.7012 95.129C88.5506 94.2756 88.4 93.2214 88.2996 92.1672C87.898 88.5528 87.3458 84.0348 84.7856 82.7798C81.623 81.2236 77.5568 80.571 73.2898 80.571Z" fill="#111111"/>
<path d="M83.8827 75.6012C87.4971 78.061 90.4087 81.4244 93.2701 84.7376C94.3745 86.0428 95.5793 87.599 95.2781 89.3058C94.8765 91.615 92.1657 92.5186 89.9067 93.0206L59.8871 99.5968C57.2767 100.149 54.4153 100.701 52.0559 99.4462C49.0439 97.8398 48.1905 93.874 48.5419 90.4604C49.1443 85.2898 51.8049 80.6212 55.9213 77.4586C60.1381 74.2458 65.2083 73.8944 70.2283 72.7398C75.0977 71.6354 79.7663 72.79 83.8827 75.6012Z" fill="#128FFF"/>
<path d="M83.5811 128.663C83.1293 129.466 82.5269 130.169 81.8743 130.771C81.1715 131.373 80.2679 131.675 79.3643 131.524C78.5611 131.273 77.8583 130.771 77.4065 130.018C76.7037 128.964 75.6495 125.048 78.1093 125.902C78.9627 126.203 79.7157 127.207 80.5691 127.659C81.4727 128.161 82.5269 128.512 83.5811 128.663Z" fill="#111111"/>
<path d="M86.3927 101.856C87.3967 102.107 87.7983 103.312 88.0493 104.316C88.1999 104.767 88.2501 105.219 88.1999 105.671C88.1999 106.324 87.6477 106.876 86.9951 106.876C86.5935 106.876 86.2421 106.675 85.9911 106.374C85.6397 105.922 85.3887 105.42 85.2381 104.868C84.9871 104.265 84.8867 103.613 84.8867 103.01C84.9369 102.358 85.4389 101.806 86.0915 101.705" fill="#111111"/>
<path d="M81.3726 102.91C82.0754 103.713 82.6276 104.667 82.9288 105.671C83.1296 106.123 83.0794 106.675 82.8284 107.127C82.4268 107.478 81.8746 107.579 81.4228 107.328C80.971 107.077 80.5694 106.725 80.2682 106.324C79.8164 105.872 79.465 105.32 79.214 104.717C78.963 104.115 79.0634 103.412 79.465 102.91C79.8666 102.458 80.6196 102.358 81.0714 102.81C81.1216 102.81 81.1216 102.86 81.1718 102.91" fill="#111111"/>
<path d="M79.8667 147.588C77.9591 147.588 76.0013 147.287 74.1439 146.785C69.2745 145.429 65.0075 142.668 60.8911 140.008C60.7907 139.907 60.7405 139.757 60.8409 139.656C60.8911 139.556 61.0417 139.506 61.1923 139.606C65.3087 142.267 69.5255 144.978 74.3447 146.333C79.6659 147.839 84.7863 147.186 88.4007 144.626C88.5011 144.526 88.6517 144.576 88.7521 144.676C88.8525 144.777 88.8023 144.927 88.7019 145.028C86.0413 146.735 82.9791 147.638 79.8667 147.588Z" fill="#111111"/>
<path d="M69.826 209.133C69.7758 209.133 69.7256 209.133 69.7256 209.133C69.6252 209.083 69.575 208.932 69.6252 208.782C74.1432 200.147 78.7616 191.212 81.121 181.523C83.7314 170.831 82.878 160.59 78.7114 152.759C78.6612 152.658 78.7114 152.508 78.8118 152.407C78.9122 152.357 79.0628 152.407 79.1632 152.508C83.38 160.489 84.2334 170.831 81.5728 181.624C79.2134 191.312 74.5448 200.298 70.0268 208.983C69.9766 209.083 69.8762 209.133 69.826 209.133Z" fill="#111111"/>
<path d="M104.715 174.897C105.468 174.947 106.171 175.198 106.723 175.65C107.928 176.855 107.326 179.164 106.573 180.82L94.3239 208.832C92.9685 211.894 91.5629 215.057 89.1533 217.115C86.2417 219.625 82.3763 219.976 78.7619 220.227L63.0995 221.432C60.9409 221.583 58.2803 221.482 57.1759 219.374C56.6237 218.32 56.6237 216.964 56.6739 215.76C57.1257 203.009 60.5895 190.66 63.9529 178.511C64.4549 176.654 65.0573 174.696 66.2621 173.341C68.5713 170.73 72.2861 171.182 75.4989 171.634C80.9707 172.387 86.4425 172.788 91.9645 172.788C96.2817 172.738 100.448 174.294 104.715 174.897Z" fill="#111111"/>
<path d="M41.463 207.426C41.8144 203.41 43.1698 199.043 46.5834 196.935C49.3946 195.178 53.009 195.328 56.2218 196.131C60.037 197.085 63.6012 198.892 66.6132 201.402C68.4706 202.959 70.1774 204.866 70.8802 207.175C71.583 209.485 71.2316 212.296 69.4244 213.902C67.6172 215.509 64.4044 215.509 62.9988 213.501C65.5088 215.107 68.069 218.019 66.814 220.78C65.6594 223.34 62.0952 223.541 59.4346 222.637C56.774 221.733 54.264 220.127 51.4528 220.328C49.2942 220.478 47.2862 221.733 45.1276 221.984C38.4008 222.788 41.1618 211.342 41.463 207.426Z" fill="white"/>
<path d="M62.3462 223.49C61.3422 223.49 60.288 223.34 59.3342 222.988C58.531 222.737 57.778 222.386 57.025 222.085C55.1676 221.282 53.4106 220.579 51.503 220.679C50.3986 220.78 49.2942 221.081 48.2902 221.482C47.2862 221.884 46.2822 222.135 45.228 222.336C43.7722 222.486 42.6176 222.185 41.8144 221.332C39.5052 219.023 40.3084 213.35 40.8104 209.585C40.9108 208.681 41.0112 207.928 41.0614 207.376C41.3124 204.414 42.3164 199.093 46.3826 196.583C49.5452 194.625 53.5612 195.027 56.3222 195.73C60.1876 196.684 63.802 198.541 66.8642 201.101C69.1734 203.009 70.579 204.967 71.2818 207.075C72.1352 209.736 71.4826 212.597 69.7256 214.203C68.6714 215.107 67.2658 215.559 65.9104 215.458C67.316 217.065 68.1192 219.023 67.2658 220.98C66.3622 222.737 64.4546 223.49 62.3462 223.49ZM51.9548 219.926C53.8624 219.926 55.6194 220.679 57.3262 221.382C58.0792 221.683 58.8322 222.035 59.5852 222.286C62.1956 223.139 65.5088 222.888 66.5128 220.629C67.3662 218.822 66.2618 216.764 64.5048 215.107C63.802 214.856 63.1996 214.354 62.7478 213.701C62.6474 213.551 62.6474 213.35 62.798 213.25C62.8984 213.099 63.0992 213.099 63.2498 213.199C63.8522 213.601 64.4044 214.003 64.9064 214.454C65.2076 214.555 65.5088 214.605 65.81 214.655C67.0148 214.806 68.2698 214.404 69.1734 213.601C70.7296 212.195 71.2818 209.635 70.5288 207.226C69.9264 205.268 68.571 203.461 66.3622 201.603C63.4004 199.093 59.8864 197.336 56.1214 196.382C53.511 195.73 49.6958 195.328 46.7842 197.135C43.0192 199.495 42.0654 204.565 41.8144 207.326C41.7642 207.928 41.6638 208.681 41.5634 209.585C41.0614 213.199 40.3084 218.621 42.3666 220.679C43.0192 221.382 43.9228 221.633 45.1778 221.482C46.1818 221.332 47.1356 221.081 48.0894 220.679C49.1938 220.227 50.3484 219.926 51.503 219.826L51.9548 219.926Z" fill="#111111"/>
<path d="M66.3126 216.211C66.2624 216.211 66.162 216.161 66.1118 216.111C64.3046 214.003 62.4472 211.794 60.2384 210.037C57.7786 208.079 55.1682 206.975 52.6582 206.824C49.6964 206.623 46.9354 207.828 45.3792 209.886C45.2788 209.987 45.1282 210.037 45.0278 209.936C44.9274 209.836 44.8772 209.685 44.9776 209.585C46.6342 207.326 49.5458 206.071 52.7084 206.322C55.3188 206.473 58.0296 207.627 60.5396 209.635C62.7986 211.392 64.656 213.651 66.4632 215.76C66.5636 215.86 66.5134 216.011 66.413 216.111C66.413 216.211 66.3628 216.211 66.3126 216.211Z" fill="#111111"/>
<path d="M114.454 154.867C111.793 152.206 109.283 149.194 108.229 145.58C107.175 141.966 107.928 137.598 110.89 135.239C113.851 132.879 119.072 133.733 120.377 137.247C122.787 133.883 125.699 130.922 129.012 128.462C130.869 127.106 132.927 125.851 135.186 125.651C137.445 125.45 140.006 126.504 140.859 128.612C142.014 131.474 139.805 134.486 138.951 137.498C137.947 141.112 139.052 145.078 137.998 148.642C136.843 152.759 133.178 155.62 129.765 158.18C127.405 159.937 124.393 163.552 121.582 162.347C119.373 161.443 116.211 156.624 114.454 154.867Z" fill="white"/>
<path d="M122.737 162.999C122.285 162.999 121.833 162.899 121.432 162.748C119.876 162.096 117.968 159.736 116.261 157.628C115.458 156.674 114.755 155.72 114.203 155.168C111.693 152.658 108.982 149.546 107.878 145.731C106.874 142.267 107.326 137.598 110.639 134.988C112.446 133.683 114.705 133.231 116.864 133.883C118.37 134.285 119.675 135.239 120.428 136.594C122.787 133.381 125.548 130.57 128.761 128.261C130.418 127.056 132.626 125.6 135.136 125.4C137.395 125.199 140.207 126.203 141.16 128.612C142.014 130.771 141.11 132.98 140.207 135.138C139.855 135.992 139.504 136.845 139.253 137.749C138.751 139.506 138.801 141.363 138.801 143.221C138.801 145.078 138.851 147.086 138.299 148.943C137.044 153.361 132.928 156.423 129.916 158.682C129.414 159.084 128.861 159.536 128.309 159.987C126.653 161.343 124.745 162.999 122.737 162.999ZM114.705 154.616C115.307 155.218 116.06 156.122 116.813 157.126C118.37 159.034 120.277 161.443 121.683 162.046C123.691 162.899 125.9 160.991 127.807 159.285C128.359 158.783 128.912 158.331 129.464 157.929C132.375 155.771 136.391 152.759 137.546 148.592C138.048 146.835 138.048 144.927 137.998 143.07C137.948 141.213 137.948 139.255 138.45 137.397C138.751 136.494 139.052 135.59 139.454 134.687C140.307 132.578 141.16 130.62 140.407 128.763C139.604 126.705 137.144 125.801 135.136 126.002C132.827 126.203 130.719 127.558 129.163 128.713C125.9 131.173 122.988 134.084 120.629 137.448C120.528 137.548 120.428 137.598 120.277 137.598C120.127 137.598 120.026 137.498 119.976 137.347C119.374 135.891 118.119 134.837 116.613 134.486C114.705 133.934 112.647 134.285 111.04 135.49C108.43 137.548 107.426 141.614 108.53 145.429C109.685 149.144 112.295 152.156 114.705 154.616Z" fill="#111111"/>
<path d="M99.6954 125.851C100.047 126.454 100.448 126.956 101.001 127.357C110.589 135.54 122.034 142.618 133.781 149.897C135.94 151.253 138.149 152.608 140.458 153.813C141.863 154.616 143.319 155.218 144.875 155.57C146.381 155.971 148.038 155.921 149.494 155.319C148.891 153.11 147.235 151.102 145.277 149.496C143.269 147.889 141.11 146.484 138.902 145.178C132.426 141.213 126.251 137.096 120.328 132.93C117.416 130.922 114.605 128.863 111.844 126.805C110.488 125.801 109.133 124.797 107.778 123.793C106.774 123.04 105.519 121.735 104.213 121.384C101.653 120.781 98.8922 123.944 99.6954 125.851Z" fill="#111111"/>
<path d="M138.6 151.353C139.152 151.805 139.755 152.156 140.407 152.357C141.11 152.558 141.913 152.457 142.315 151.955C142.566 151.504 142.516 150.901 142.164 150.55C141.813 150.098 141.361 149.747 140.859 149.445L136.291 146.433L109.886 128.863C109.083 128.311 104.715 126.604 106.924 128.412C108.982 130.118 111.392 131.624 113.651 133.231L129.464 144.676L138.6 151.353Z" fill="#128FFF"/>
<path d="M103.059 129.365C102.205 128.562 99.0426 126.002 99.4442 124.596C99.7454 123.592 100.097 122.488 101.251 122.036C102.406 121.584 102.958 120.932 104.163 121.384C105.368 121.835 107.225 123.442 108.229 124.195C107.978 123.994 104.816 127.608 104.514 127.91C103.31 129.416 104.414 130.671 103.059 129.365Z" fill="#111111"/>
<path d="M110.589 125.952L108.581 124.295C108.33 124.044 108.029 123.894 107.677 123.793C107.225 123.743 106.774 123.944 106.422 124.245C105.067 125.249 103.962 126.604 103.36 128.161C103.209 128.512 103.159 128.863 103.159 129.215C103.209 129.817 104.314 131.273 105.167 131.223C106.021 131.173 106.021 129.968 106.322 129.416C107.225 127.709 108.782 126.504 110.589 125.952Z" fill="white"/>
<path d="M105.067 131.524C103.962 131.524 102.808 129.867 102.707 129.215C102.657 128.813 102.758 128.361 102.908 127.96C103.561 126.303 104.665 124.898 106.121 123.894C106.573 123.542 107.125 123.341 107.677 123.392C108.079 123.492 108.48 123.693 108.782 123.994L110.79 125.651C110.89 125.751 110.94 125.902 110.94 126.002C110.89 126.153 110.84 126.253 110.689 126.303C108.982 126.805 107.527 127.96 106.623 129.566C106.523 129.717 106.472 129.918 106.422 130.118C106.221 130.721 106.021 131.524 105.167 131.574L105.067 131.524ZM107.476 124.094C107.175 124.145 106.824 124.245 106.623 124.496C105.318 125.45 104.264 126.755 103.711 128.211C103.561 128.512 103.511 128.813 103.561 129.114C103.611 129.566 104.565 130.821 105.167 130.771C105.468 130.771 105.619 130.369 105.77 129.817C105.82 129.566 105.92 129.365 106.021 129.114C106.874 127.558 108.28 126.404 109.886 125.751L108.38 124.496C108.179 124.295 107.928 124.145 107.627 124.044L107.476 124.094Z" fill="#111111"/>
<path d="M147.937 152.257C147.084 151.253 146.18 150.249 145.226 149.395C144.975 149.094 144.574 148.893 144.172 148.843C143.971 148.843 143.72 148.893 143.52 148.994C141.612 149.797 140.307 151.604 140.156 153.662C141.562 154.365 142.967 154.967 144.473 155.469C144.724 155.57 145.277 155.821 145.427 155.67C145.578 155.52 145.528 155.018 145.628 154.867C145.829 154.315 146.08 153.863 146.431 153.411C146.532 153.361 147.887 152.156 147.937 152.257Z" fill="white"/>
<path d="M145.327 156.122C145.076 156.122 144.775 156.022 144.574 155.921L144.424 155.871C142.918 155.369 141.462 154.767 140.056 154.064C139.906 154.014 139.855 153.863 139.855 153.712C140.006 151.504 141.412 149.546 143.42 148.692C143.671 148.542 143.922 148.492 144.223 148.492C144.725 148.542 145.177 148.793 145.528 149.144C146.532 150.048 147.436 151.002 148.289 152.056C148.44 152.206 148.389 152.457 148.239 152.558C148.189 152.608 148.138 152.608 148.038 152.658C147.586 153.01 147.134 153.361 146.733 153.712C146.381 154.114 146.13 154.566 145.98 155.018C145.98 155.068 145.98 155.118 145.93 155.218C145.93 155.52 145.829 155.771 145.679 156.022C145.578 156.072 145.428 156.122 145.327 156.122ZM140.558 153.461C141.863 154.114 143.219 154.666 144.574 155.118L144.775 155.218C144.875 155.269 145.026 155.319 145.126 155.369C145.126 155.319 145.126 155.218 145.126 155.168C145.126 155.068 145.177 154.917 145.177 154.817C145.377 154.214 145.679 153.712 146.08 153.261C146.482 152.909 146.883 152.558 147.335 152.206C146.582 151.303 145.779 150.5 144.926 149.747C144.725 149.496 144.424 149.345 144.122 149.295C143.972 149.295 143.821 149.345 143.671 149.445C142.014 150.098 140.809 151.654 140.558 153.461Z" fill="#111111"/>
<path d="M132.878 127.458C128.51 129.516 124.795 132.729 122.085 136.745C121.131 138.05 120.428 139.506 120.077 141.062C119.725 142.618 120.026 144.325 120.93 145.63C122.386 147.638 125.297 148.09 127.657 147.387C130.016 146.684 131.924 144.927 133.58 143.07C135.237 141.213 136.793 139.255 138.751 137.749" fill="white"/>
<path d="M125.498 147.99C123.641 148.09 121.884 147.287 120.729 145.831C119.776 144.425 119.424 142.719 119.826 141.062C120.177 139.456 120.88 137.95 121.834 136.644C124.545 132.578 128.31 129.365 132.727 127.257C132.828 127.207 132.978 127.257 133.079 127.357C133.129 127.508 133.079 127.608 132.978 127.709C128.661 129.767 124.946 132.93 122.286 136.895C121.382 138.15 120.679 139.606 120.328 141.162C119.976 142.668 120.278 144.275 121.131 145.53C122.587 147.488 125.498 147.839 127.607 147.186C130.067 146.433 132.024 144.526 133.43 142.97C133.832 142.518 134.233 142.066 134.635 141.614C135.84 140.158 137.195 138.803 138.651 137.598C138.751 137.498 138.902 137.548 139.002 137.648C139.103 137.749 139.052 137.899 138.952 138C137.496 139.154 136.191 140.51 135.036 141.915C134.635 142.367 134.233 142.819 133.832 143.271C132.376 144.877 130.318 146.835 127.757 147.638C127.004 147.839 126.251 147.99 125.498 147.99Z" fill="#111111"/>
</svg>
